<?xml version="1.0" encoding="UTF-8" standalone="no"?>
<svg
   xmlns:dc="http://purl.org/dc/elements/1.1/"
   xmlns:cc="http://creativecommons.org/ns#"
   xmlns:rdf="http://www.w3.org/1999/02/22-rdf-syntax-ns#"
   xmlns:svg="http://www.w3.org/2000/svg"
   xmlns="http://www.w3.org/2000/svg"
   viewBox="0 0 368.004 524.86401"
   height="524.86401"
   width="368.004"
   id="svg2"
   version="1.1">
  <metadata
     id="metadata8">
    <rdf:RDF>
      <cc:Work
         rdf:about="">
        <dc:format>image/svg+xml</dc:format>
        <dc:type
           rdf:resource="http://purl.org/dc/dcmitype/StillImage" />
        <dc:title></dc:title>
      </cc:Work>
    </rdf:RDF>
  </metadata>
  <defs
     id="defs6">
    <clipPath
       clipPathUnits="userSpaceOnUse"
       id="clipPath888">
      <rect
         style="opacity:1;fill:#fe0000;fill-opacity:1;stroke:none;stroke-width:1.71722;stroke-opacity:1"
         id="rect890"
         width="357.61191"
         height="522.13251"
         x="24.572956"
         y="-4"
         transform="rotate(-0.25387948)" />
    </clipPath>
    <clipPath
       clipPathUnits="userSpaceOnUse"
       id="clipPath894">
      <rect
         style="opacity:1;fill:#fe0000;fill-opacity:1;stroke:none;stroke-opacity:1"
         id="rect896"
         width="351"
         height="531"
         x="408"
         y="-4"
         transform="rotate(0.5)" />
    </clipPath>
  </defs>
  <g
     id="g10">
    <g
       transform="translate(-3.9188371,-3.875)"
       style="opacity:1"
       id="g1271">
      <path
         style="fill:#fe0000;fill-opacity:1;stroke:none;stroke-width:1px;stroke-linecap:butt;stroke-linejoin:miter;stroke-opacity:1"
         d="m 5.0625,191.95912 c -0.1675489,123.14852 59.789728,244.98242 157.46875,319.97838 7.65975,5.881 15.53111,11.48636 23.59375,16.80159 8.06264,-5.31523 15.934,-10.92059 23.59375,-16.80159 97.67902,-74.99596 157.6363,-196.82986 157.46875,-319.97838 V 3.875 H 5.0625 Z"
         id="path841"
         transform="matrix(1.0162317,0,0,1,-1.22548,0)" />
      <g
         id="g1215">
        <path
           d="m 284.77621,152.05558 -95.01748,1.38107 -1.93349,-76.234952 c 3.0567,-3.710148 6.65041,-6.977157 10.63422,-9.667476 6.36999,-4.301734 13.65335,-7.085315 21.06045,-9.138744 9.36447,-2.596059 19.03725,-4.085869 28.22338,-7.255709 5.76946,-1.990859 11.29904,-4.629606 16.64625,-7.571983 5.30884,-2.921263 10.46045,-6.154077 15.20855,-9.918797 5.39991,-4.281531 10.26065,-9.242338 14.43127,-14.728358 0.10872,5.807332 -0.12198,11.621 -0.69053,17.401456 -1.44576,14.699109 -5.08937,29.180131 -10.77233,42.813106 z"
           style="opacity:1;fill:#000000;stroke:none;stroke-width:1px;stroke-linecap:butt;stroke-linejoin:miter;stroke-opacity:1"
           id="path1252" />
        <path
           d="m 206.19344,79.066144 c 2.8077,-2.895608 6.26622,-5.110749 9.94369,-6.767233 4.52907,-2.040077 9.37873,-3.250232 14.0869,-4.833738 3.99392,-1.343281 7.89601,-2.959531 11.67002,-4.83374 -0.26563,1.726597 -0.80371,3.411001 -1.58823,4.971843 -1.14158,2.271222 -2.78597,4.253716 -4.55752,6.076699 -4.75025,4.888162 -10.52894,8.772201 -16.84903,11.324757 2.40151,0.02242 4.80471,-0.13933 7.18155,-0.483374 3.24915,-0.47031 6.44881,-1.281818 9.52937,-2.416869 -0.10497,0.906573 -0.26651,1.806592 -0.48337,2.693082 -0.89397,3.654424 -2.74589,7.070065 -5.3206,9.813215 -2.57471,2.743149 -5.86631,4.807513 -9.45683,5.930964 1.10557,0.31967 2.23781,0.54703 3.38108,0.67895 2.54311,0.29345 5.14042,0.1103 7.61719,-0.53711 l -6.5098,49.71471 -22.3733,0.27621 -0.55243,-65.73883 c 1.14429,-2.143248 2.59001,-4.125283 4.28131,-5.869536 z"
           style="fill:#ffffff;fill-opacity:1;stroke:none;stroke-width:1px;stroke-linecap:butt;stroke-linejoin:miter;stroke-opacity:1"
           id="path1297" />
        <g
           id="g1230">
          <path
             id="path1010"
             style="fill:#000000;stroke:none;stroke-width:1px;stroke-linecap:butt;stroke-linejoin:miter;stroke-opacity:1"
             d="m 323.05941,113.84419 c 1.3052,0.32949 2.70666,0.26721 3.97748,-0.17677 -2.07699,4.15241 -4.3185,8.22253 -6.71751,12.19759 -2.40736,3.9889 -4.97333,7.88208 -7.68979,11.66726 1.04977,0.43945 2.17241,0.70424 3.30791,0.78023 1.39412,0.0933 2.80676,-0.0993 4.125,-0.5625 -1.24608,2.28521 -2.62413,4.49844 -4.125,6.625 -2.75466,3.90302 -5.92402,7.51316 -9.4375,10.75 0.96967,0.16008 1.95535,0.223 2.9375,0.1875 1.5333,-0.0554 3.05765,-0.35182 4.5,-0.875 -2.09741,3.39258 -4.35057,6.68887 -6.75,9.875 -4.2835,5.68793 -9.03382,11.0242 -14.1875,15.9375 0.93049,0.24036 1.87948,0.40908 2.8358,0.50417 1.23338,0.12264 2.47893,0.12264 3.71231,0 -2.50414,3.8176 -5.58432,7.25663 -9.104,10.16466 -2.27773,1.8819 -4.73848,3.54217 -7.33623,4.94975 0.5404,0.25451 1.10303,0.4618 1.67938,0.61872 1.00532,0.27372 2.05243,0.39339 3.09359,0.35355 -1.28378,1.45241 -2.6414,2.83954 -4.06586,4.15425 -3.19848,2.95205 -6.73499,5.53756 -10.51822,7.68979 0.65264,0.62906 1.44243,1.11509 2.2981,1.41421 0.68002,0.23772 1.40096,0.35788 2.12132,0.35356 -3.98218,3.38116 -8.25596,6.41878 -12.75831,9.06809 -4.74529,2.79226 -9.74441,5.15295 -14.91553,7.04345 1.36678,0.46849 2.7765,0.81162 4.2057,1.02369 1.40488,0.20846 2.82853,0.29028 4.24805,0.24414 -6.04343,2.61688 -12.26383,4.82499 -18.6046,6.60425 -26.86614,7.53881 -55.89912,7.17388 -82.56728,-1.03784 L 219.875,135.75 c 1.15348,-3.43733 2.09339,-6.94632 2.8125,-10.5 1.23992,-6.12738 1.82898,-12.40608 3.6875,-18.375 4.31901,-13.871203 15.47329,-25.101424 28.75,-31 10.02976,-4.456021 21.0511,-6.059798 31.625,-9 23.85657,-6.63361 45.69078,-20.368034 62,-39 -1.55383,8.875686 -3.6848,17.65029 -6.375,26.250001 -3.42811,10.958595 -7.76504,21.63274 -12.95163,31.876862 1.09541,0.0278 2.19375,-0.06126 3.27037,-0.265165 2.01295,-0.381246 3.94833,-1.167495 5.65686,-2.298097 -1.04788,3.095176 -2.25806,6.135397 -3.62392,9.104 -3.56052,7.738579 -8.18411,14.987169 -13.47923,21.080619 0.7231,-0.12701 1.25884,0.0813 1.81196,0.22097 z" />
          <path
             id="path1215"
             style="fill:#ffffff;stroke:none;stroke-width:1px;stroke-linecap:butt;stroke-linejoin:miter;stroke-opacity:1"
             d="m 326.72612,69.156977 c -0.19071,2.705964 -0.93634,5.349332 -1.9335,7.872087 -2.89334,7.319996 -7.97965,13.756978 -14.43216,18.264624 1.58811,-0.02814 3.17361,-0.201739 4.73019,-0.517901 2.37631,-0.482661 4.68464,-1.298739 6.83629,-2.416868 0.14276,1.597747 0.0963,3.212318 -0.13811,4.799211 -0.51585,3.49226 -1.93924,6.81374 -3.86699,9.77106 -4.20255,6.44705 -10.90198,11.21976 -18.3682,13.08561 2.21496,0.1944 4.4409,0.2636 6.66365,0.20716 2.32215,-0.059 4.64081,-0.25507 6.93987,-0.58695 -0.27435,2.53812 -0.87952,5.04028 -1.79539,7.42324 -1.28457,3.34227 -3.18987,6.4561 -5.66238,9.046 -4.30823,4.51277 -10.34679,7.33077 -16.57282,7.73398 2.04091,0.16231 4.09058,0.21438 6.1371,0.15591 3.22981,-0.0923 6.4517,-0.46025 9.61914,-1.09863 -0.43365,1.43195 -0.98119,2.8294 -1.63574,4.1748 -3.95543,8.13023 -12.02912,14.1211 -20.95678,15.55044 1.26057,0.3557 2.54536,0.62552 3.84252,0.80699 3.14234,0.4396 6.35714,0.35674 9.47266,-0.24415 -0.49881,1.87884 -1.16984,3.71192 -2.00195,5.46875 -4.10727,8.67167 -12.32842,15.28193 -21.67969,17.43165 1.03496,0.16689 2.07843,0.28102 3.125,0.34179 2.01972,0.11728 4.05097,0.0354 6.05469,-0.24414 -1.1284,2.0347 -2.49118,3.9393 -4.05274,5.66406 -4.83037,5.33519 -11.60946,8.86597 -18.75,9.76563 1.32506,0.41262 2.67191,0.7552 4.03308,1.02586 1.60702,0.31954 3.23398,0.53878 4.86826,0.65601 -1.33502,1.66736 -2.84169,3.19721 -4.48847,4.55753 -5.6738,4.68684 -13.04705,7.26935 -20.40528,7.14702 1.07287,0.67568 2.20687,1.25426 3.38362,1.72634 1.37364,0.55107 2.80552,0.95687 4.26404,1.20843 -1.32753,0.93229 -2.71663,1.77689 -4.15525,2.52647 -5.79986,3.02197 -12.41405,4.46243 -18.94531,4.12597 0.81003,0.39515 1.64178,0.74579 2.49023,1.04981 2.53736,0.90919 5.22481,1.39798 7.91981,1.44042 -2.49452,2.24011 -5.3434,4.08479 -8.40809,5.44434 -6.6747,2.96101 -14.13647,3.55282 -21.43554,3.75977 -8.31634,0.23579 -16.65916,0.0243 -24.91375,-1.01438 -3.01026,-0.37878 -6.01273,-0.86856 -8.94242,-1.65728 -1.55684,-0.41913 -3.09108,-0.92221 -4.59383,-1.50632 9.53228,-6.52205 18.54553,-13.80245 26.92656,-21.74976 7.59067,-7.19785 14.67524,-14.95781 20.80078,-23.4375 11.77704,-16.30317 19.91986,-35.29392 23.05417,-55.16018 0.99879,-6.33063 1.50211,-12.77332 3.31457,-18.92063 2.04692,-6.94254 5.92529,-13.558964 11.87718,-17.677669 5.09542,-3.526028 11.28821,-4.987824 17.26335,-6.629126 4.48832,-1.232889 8.9385,-2.60462 13.34203,-4.112569 -0.23242,1.161699 -0.59468,2.297373 -1.07786,3.379083 -1.52706,3.418638 -4.20245,6.18964 -7.03125,8.642578 -4.64677,4.029363 -9.85621,7.408903 -15.42969,10.009763 1.64823,0.0526 3.30123,-0.0456 4.93164,-0.29297 3.70286,-0.56176 7.2859,-1.90121 10.44922,-3.90625 0.0708,2.01195 -0.2808,4.03777 -1.02539,5.90821 -1.01585,2.55186 -2.73077,4.76528 -4.58984,6.78711 -4.00681,4.35759 -8.79262,7.9968 -14.0625,10.69336 1.42822,0.12457 2.86446,0.15722 4.29687,0.0977 3.75908,-0.15621 7.49077,-0.9523 10.98633,-2.34375 0.0492,0.66676 0.0329,1.33834 -0.0488,2.00191 -0.25385,2.06287 -1.1294,3.99908 -2.14844,5.81054 -3.593,6.38695 -9.1504,11.65095 -15.72265,14.89258 1.87554,-0.0644 3.74881,-0.19475 5.6152,-0.39062 2.55589,-0.26824 5.09887,-0.65947 7.61719,-1.17188 -0.75122,1.43874 -1.60017,2.82645 -2.53906,4.15039 -5.80389,8.18416 -15.18003,13.73702 -25.14649,14.89258 1.50054,0.56111 3.03399,1.0342 4.58985,1.41602 4.15722,1.02022 8.4748,1.38415 12.74414,1.07421 -0.33333,1.06655 -0.81104,2.08787 -1.41602,3.02735 -1.41311,2.19445 -3.48114,3.8914 -5.66406,5.32226 -4.87959,3.19847 -10.51266,5.23919 -16.3086,5.90821 2.1861,0.50651 4.40633,0.86566 6.64063,1.07422 2.90455,0.27112 5.83283,0.28747 8.74023,0.0488 -1.1329,1.65022 -2.42683,3.18984 -3.85742,4.58987 -6.1715,6.03966 -14.967,9.29928 -23.58398,8.74023 1.83708,0.4529 3.69852,0.80693 5.5736,1.06004 3.38365,0.45675 6.81168,0.58414 10.2199,0.3798 -0.40851,0.89516 -0.95828,1.72567 -1.62275,2.45139 -1.0774,1.17672 -2.43542,2.06067 -3.83247,2.83119 -5.88126,3.2437 -12.75405,4.65976 -19.43853,4.0051 2.10574,0.81231 4.27949,1.44825 6.49102,1.89897 3.09661,0.6311 6.26724,0.89823 9.42579,0.79411 -1.30078,1.59639 -2.82855,3.00754 -4.523,4.17773 -2.07192,1.43087 -4.37719,2.49378 -6.7327,3.38362 -6.38584,2.41237 -13.2351,3.59125 -20.06001,3.45267 1.24671,0.73637 2.55284,1.37209 3.90151,1.89897 1.87873,0.73395 3.84007,1.2562 5.83501,1.5537 -0.72986,1.14641 -1.64257,2.17614 -2.69308,3.03835 -0.974,0.79942 -2.06052,1.45187 -3.17645,2.03707 -6.28234,3.29448 -13.64912,4.47711 -20.64697,3.31457 4.25912,0.86489 8.6136,1.25935 12.95881,1.17389 4.00005,-0.0787 8.05866,-0.58159 11.71875,-2.19726 3.82615,-1.68897 7.10696,-4.58889 9.25294,-8.17871 1.95107,-0.29496 3.89008,-0.66973 5.81054,-1.12305 4.03548,-0.95257 8.05389,-2.28452 11.4502,-4.66309 2.77558,-1.94384 5.07419,-4.56359 6.64062,-7.56836 2.71983,-1.02387 5.33795,-2.31772 7.80339,-3.85635 5.27307,-3.29082 9.8367,-7.7122 13.29278,-12.87846 -0.80068,0.10622 -1.60931,0.15243 -2.41687,0.13811 -1.07942,-0.0191 -2.15688,-0.14657 -3.21098,-0.37977 1.69684,-1.21176 3.32335,-2.52201 4.8686,-3.92196 3.76849,-3.41413 7.05065,-7.36427 9.71679,-11.69434 -1.39361,0.2795 -2.80784,0.45617 -4.22738,0.52811 -1.43852,0.0729 -2.88248,0.0383 -4.31584,-0.10358 2.24013,-1.69062 4.28378,-3.64137 6.0767,-5.80049 2.94639,-3.54818 5.20944,-7.66173 6.62913,-12.04981 -1.56383,0.52237 -3.17083,0.91544 -4.79921,1.1739 -2.17785,0.34567 -4.3939,0.45009 -6.5946,0.31074 2.71579,-1.91928 5.31198,-4.00777 7.76851,-6.24933 5.72291,-5.22211 10.68282,-11.27903 14.67384,-17.91935 -0.73203,0.2263 -1.48394,0.38825 -2.24423,0.48337 -1.30727,0.16355 -2.6392,0.12849 -3.93605,-0.10358 1.68581,-1.5355 3.27797,-3.17381 4.76469,-4.90279 3.86671,-4.49679 7.01449,-9.61047 9.28768,-15.08817 -0.93719,0.1282 -1.88714,0.16295 -2.83119,0.10358 -0.79038,-0.0497 -1.5766,-0.16533 -2.34782,-0.34527 1.60213,-1.99224 3.10097,-4.06755 4.48848,-6.2148 3.33026,-5.15378 6.01624,-10.723415 7.97566,-16.538291 -0.59696,0.06337 -1.19576,0.109426 -1.79539,0.138107 -1.58864,0.07599 -3.18311,0.02977 -4.76468,-0.138107 1.57825,-1.327896 2.95653,-2.893053 4.07415,-4.626577 1.67303,-2.594998 2.75535,-5.568409 3.14193,-8.631675 3.86021,-1.276592 7.63485,-2.811846 11.29023,-4.592051 5.37869,-2.619475 10.49851,-5.770138 15.2608,-9.391262 0.0983,1.067047 0.10983,2.142071 0.0345,3.210983 z" />
        </g>
        <path
           id="path1326"
           d="m 61.6181,136.02277 c -1.47708,-0.17993 -2.929079,-0.63504 -4.077149,-1.2779 -3.979109,-2.22811 -6.256844,-6.73316 -5.938272,-11.74512 0.05713,-0.89875 0.178363,-1.86115 0.325951,-2.58747 0.235113,-1.15705 0.721072,-2.79488 0.829267,-2.79488 0.118368,0 2.064798,-0.65196 2.878758,-0.96424 5.074183,-1.94674 9.888729,-5.02156 14.286943,-9.12439 0.284576,-0.26547 1.328277,-1.26617 2.319336,-2.2238 1.902688,-1.8385 2.572883,-2.45119 3.486494,-3.18732 2.539091,-2.04584 5.379691,-3.454993 8.369591,-4.151944 1.486022,-0.346395 2.756546,-0.482863 4.49662,-0.482987 2.622196,-1.87e-4 5.146538,0.366559 8.569336,1.244987 5.194535,1.333124 8.715185,2.974294 11.758655,5.481344 0.66425,0.54718 0.94032,0.81069 0.84935,0.81069 -0.13227,0 -2.43377,0.30257 -3.17891,0.41791 -1.04703,0.16209 -2.87261,0.51066 -3.96933,0.75791 -4.844954,1.09225 -7.873073,2.52461 -11.123827,5.26179 -0.767811,0.64651 -2.777448,2.65378 -3.527485,3.52333 -1.370348,1.5887 -2.83606,3.50284 -5.141,6.71386 -2.696349,3.7563 -4.103158,5.54338 -5.769246,7.3287 -3.59361,3.85078 -7.753924,6.2638 -11.909595,6.90766 -0.529871,0.0821 -0.952567,0.10864 -1.924159,0.12085 -0.684814,0.009 -1.409912,-0.004 -1.611328,-0.029 z"
           style="opacity:1;fill:#fabc8d;fill-opacity:1;stroke:#fabc8d;stroke-width:1;stroke-linecap:round;stroke-miterlimit:4;stroke-dasharray:none;stroke-opacity:1" />
        <path
           id="path1389"
           d="m 40.429688,114.69727 c -0.50668,2.60005 -0.638669,5.27283 -0.390627,7.91015 0.176651,1.87825 0.5454,3.73839 1.098633,5.54199 -2.709891,-1.74462 -4.924375,-4.24981 -6.323241,-7.15332 -0.984518,-2.04348 -1.568432,-4.27904 -1.708984,-6.54296"
           style="fill:#ffffff;stroke:#000000;stroke-width:2;stroke-linecap:butt;stroke-linejoin:miter;stroke-miterlimit:4;stroke-dasharray:none;stroke-opacity:1" />
        <path
           id="path931"
           style="opacity:1;fill:#03bd1c;fill-opacity:1;stroke:#000000;stroke-width:2;stroke-linecap:round;stroke-linejoin:miter;stroke-miterlimit:4;stroke-dasharray:none;stroke-opacity:1"
           d="m 123.625,96.75 c 1.40979,1.097114 2.42209,2.694303 2.8125,4.4375 0.39822,1.77806 0.14621,3.69231 -0.6875,5.3125 -0.96707,1.87935 -2.63911,3.29424 -4.375,4.5 -3.05737,2.12368 -6.44802,3.761 -10,4.875 -2.92253,0.91659 -5.94588,1.47968 -8.875,2.375 -2.11301,0.64587 -4.195062,1.47557 -6,2.75 -1.580658,1.11607 -2.911109,2.54573 -4.1875,4 -3.964386,4.51688 -7.548984,9.39931 -12,13.4375 -1.876947,1.70286 -3.913975,3.25529 -6.1875,4.375 -1.814157,0.89347 -3.76241,1.50224 -5.75,1.875 -5.233882,0.98158 -10.891716,0.24853 -15.375,-2.625 -3.168574,-2.03088 -5.703619,-5.16348 -6.625,-8.8125 -0.349707,-1.38497 -0.467069,-2.82186 -0.4375,-4.25 0.08694,-4.19891 1.423139,-8.25169 3.862056,-11.67076 l 2.128598,-0.56823 c -0.570927,1.46474 -0.972203,2.99554 -1.193243,4.552 -0.22236,1.56576 -0.261981,3.16237 -0.04419,4.72877 0.303657,2.18397 1.116822,4.30363 2.408772,6.09046 1.291951,1.78684 3.066148,3.23271 5.104238,4.0742 2.508317,1.03564 5.343439,1.13259 7.999145,0.57453 3.427546,-0.72025 6.57825,-2.4926 9.236583,-4.77297 5.359511,-4.59749 8.698719,-11.0802 13.34664,-16.39604 2.16983,-2.48164 4.664428,-4.73442 7.601398,-6.23138 2.243718,-1.14362 4.695463,-1.82184 7.159453,-2.34229 2.82544,-0.5968 5.69264,-0.99584 8.57367,-1.19324 -1.58812,-1.76479 -3.44214,-3.28987 -5.48008,-4.50781 -2.91298,-1.740895 -6.16672,-2.839535 -9.457552,-3.668116 -3.810116,-0.959328 -7.778046,-1.574399 -11.667262,-1.016466 -3.446896,0.49448 -6.741611,1.913172 -9.545941,3.977472 -2.489196,1.83233 -4.578815,4.14275 -6.844785,6.24487 -5.305374,4.92174 -11.742678,8.76714 -18.8125,10.3125 -1.971783,0.431 -3.982794,0.68238 -6,0.75 -0.816172,0.026 -1.635433,-0.0462 -2.434452,-0.21471 -0.519971,-0.10964 -1.035045,-0.26138 -1.50575,-0.50801 -0.625107,-0.32753 -1.161929,-0.82169 -1.539991,-1.4176 -0.378061,-0.59591 -0.596432,-1.2921 -0.626444,-1.99718 -0.399181,0.22131 -0.822275,0.39946 -1.259534,0.53033 -0.785585,0.23513 -1.626633,0.31574 -2.430679,0.15468 -0.956279,-0.19155 -1.824159,-0.71818 -2.528787,-1.39246 -0.704627,-0.67429 -1.25665,-1.49258 -1.735951,-2.34195 -0.831198,-1.47297 -1.45889,-3.05728 -1.907162,-4.6881 -0.199106,-0.72435 -0.364165,-1.46781 -0.34375,-2.21875 0.01647,-0.60589 0.153589,-1.20706 0.125,-1.8125 -0.0226,-0.47865 -0.148216,-0.94591 -0.28125,-1.40625 -0.354121,-1.22538 -0.770896,-2.491617 -0.5625,-3.75 0.195919,-1.183044 0.932207,-2.216963 1.8125,-3.03125 0.292468,-0.270538 0.605191,-0.52466 0.84375,-0.84375 0.328359,-0.439205 0.49785,-0.978682 0.58816,-1.519575 0.09031,-0.540893 0.106956,-1.091048 0.16184,-1.636675 0.288931,-2.872413 1.646085,-5.56828 3.5,-7.78125 0.820795,-0.979762 1.743386,-1.879026 2.78125,-2.625 0.683682,-0.491402 1.421224,-0.917592 2.21875,-1.1875 1.899329,-0.642794 3.96653,-0.358411 5.96875,-0.25 3.847075,0.208302 7.768944,-0.279912 11.323904,-1.76505 2.712894,-1.133352 5.153338,-2.815432 7.645592,-4.375223 4.64017,-2.904077 9.52637,-5.41842 14.602922,-7.466214 8.033225,-3.240464 16.502052,-5.29818 25.039252,-6.764311 12.50849,-2.148138 25.28279,-3.044961 37.9186,-1.856155 11.08738,1.043126 22.04411,3.702534 32.26175,8.131728 11.56091,5.011481 22.2137,12.359711 30.3172,22.008699 C 211.27943,94.265128 216.31705,104.31447 218.5,115 c 1.26548,6.19453 1.57697,12.5687 1.125,18.875 -0.89064,12.42723 -4.72921,24.51992 -10.125,35.75 -7.83854,16.31408 -18.89304,30.86223 -30.5,44.75 -11.24656,13.45654 -23.09084,26.42012 -33.875,40.25 -5.934,7.60991 -11.56171,15.5087 -15.99112,24.08211 -3.83802,7.42874 -6.7806,15.45307 -7.38388,23.79289 -0.28018,3.87331 -0.0408,7.83737 1.25,11.5 1.40796,3.99507 4.11507,7.57508 7.75,9.75 2.13778,1.27912 4.54826,2.05813 7,2.5 8.36396,1.50742 16.93437,-0.84606 24.875,-3.875 7.4581,-2.84488 14.69882,-6.31072 22.375,-8.5 7.65415,-2.183 15.73679,-3.06195 23.625,-2 7.49082,1.00845 14.68811,3.74887 21.25,7.5 8.21313,4.69507 15.42373,10.92096 22.875,16.75 4.72984,3.7001 9.59443,7.26532 14.875,10.125 7.09324,3.84133 14.94931,6.37746 22.9987,6.90403 7.61972,0.49846 15.28634,-0.80414 22.55178,-3.15403 4.55675,-1.47381 8.98038,-3.35895 13.19952,-5.625 -5.0543,4.94667 -10.35469,9.6419 -15.875,14.0625 -7.68797,6.15643 -15.83837,11.80073 -24.6875,16.125 -9.64342,4.71241 -20.27701,7.84384 -31,7.375 -11.05177,-0.48322 -21.54779,-4.71643 -31.8087,-8.85029 -7.48874,-3.01702 -15.08056,-6.03695 -23.08084,-7.12284 -11.00712,-1.49402 -22.38285,0.81641 -32.30725,5.8059 -6.77569,3.40648 -12.91334,8.01863 -19.83039,11.12805 -6.57947,2.95766 -13.74898,4.49075 -20.94804,4.94975 -10.58422,0.67483 -21.54551,-1.04763 -30.670758,-6.45235 -5.252133,-3.11074 -10.641277,-8.22828 -14.575194,-12.89582 -9.685998,-11.4923 -15.122746,-24.85633 -17.509776,-39.69525 -2.132818,-13.25862 -1.168268,-26.98882 2.65165,-39.86314 3.265216,-11.0048 8.566354,-21.32902 14.849243,-30.93592 10.865842,-16.61451 24.616185,-31.11088 38.272155,-45.52 12.7198,-13.42132 25.559,-27.03038 34.64823,-43.13352 5.22617,-9.25906 9.1773,-19.38604 10.25305,-29.96365 0.24483,-2.40733 0.34024,-4.82813 0.35355,-7.24784 0.0192,-3.49377 -0.14461,-7.05335 -1.32582,-10.34144 -1.36903,-3.8109 -4.06674,-7.0685 -7.33624,-9.45755 -2.33804,-1.70842 -4.96522,-2.99671 -7.68978,-3.97748 -7.32272,-2.63601 -15.43183,-3.04146 -22.98097,-1.14904" />
        <path
           d="m 127.03125,103.28125 c 1.43549,-0.71338 2.91914,-1.32983 4.4375,-1.84375 2.75959,-0.93405 5.6493,-1.52979 8.5625,-1.5625 3.80414,-0.04271 7.61523,0.89106 10.96875,2.6875 2.52903,0.0212 5.05589,0.29382 7.53125,0.8125 4.62884,0.96991 9.09217,2.81689 12.94214,5.56364 2.6224,1.87095 4.97104,4.17658 6.62913,6.93849 1.04931,1.74785 1.81369,3.66631 2.2539,5.65685 1.924,1.6457 3.53061,3.66111 4.70608,5.90352 1.01607,1.93833 1.70903,4.0389 2.125,6.1875 1.42895,7.38098 -0.57016,15.35389 -5.3125,21.1875 0.23218,1.09228 0.38939,2.20049 0.47016,3.31425 0.30208,4.16553 -0.47918,8.3831 -2.07713,12.24179 -2.95436,7.13409 -8.77316,13.03393 -15.8657,16.08668 -0.15615,2.10436 -0.51181,4.19386 -1.06066,6.23138 -2.82987,10.50547 -11.10732,19.38149 -21.38998,22.93677 -0.50447,2.10725 -1.22238,4.16335 -2.13919,6.12663 -3.44171,7.37015 -9.78435,13.33757 -17.88077,16.54499 -0.58292,3.58617 -1.45471,6.93566 -3.0494,9.89949 -1.72993,3.21517 -4.28771,5.95035 -7.24785,8.08753 -1.98824,1.43548 -4.16304,2.61226 -6.73961,3.71231 0.0593,4.41841 -0.5975,8.69531 -2.18761,12.59534 -2.05,5.028 -5.662046,9.40623 -10.208854,12.37437 0.603213,2.07584 1.00348,4.2106 1.193242,6.36396 0.682014,7.73928 -1.454764,15.69639 -5.922019,22.0529 1.991551,3.36102 3.23791,7.1609 3.623922,11.04854 0.470458,4.73812 -0.347214,9.59787 -2.342291,13.92116 2.79089,2.10281 5.175015,4.74346 6.98268,7.73398 2.228062,3.68601 3.572347,7.90218 3.889087,12.1976 3.138903,0.2673 6.218793,1.20796 8.971413,2.74004 3.91919,2.18138 7.154,5.57247 9.1482,9.59013 3.36453,-0.94602 6.93728,-1.14366 10.38563,-0.57452 4.61594,0.76185 8.99364,2.91175 12.41856,6.09879 1.56267,-1.46775 3.44638,-2.5919 5.48008,-3.27037 2.2944,-0.76544 4.74078,-0.96064 7.15946,-0.97227 3.42591,-0.0165 6.85344,0.3248 10.78337,0.97228 1.294,-1.5419 2.32377,-2.88968 3.57973,-3.97748 2.1115,-1.8288 4.82839,-2.88947 7.6014,-3.22618 2.42893,-0.29493 4.92172,-0.0517 9.17029,0.39775 3.7902,-2.24703 6.06296,-3.79251 8.55157,-4.81716 3.29122,-1.35512 6.93935,-1.78788 10.47402,-1.37002 2.32148,0.27444 4.59991,0.91001 6.72825,1.87684 2.6005,-1.10558 5.37357,-1.80414 8.1875,-2.0625 6.94895,-0.63801 14.11484,1.51405 19.5625,5.875 2.21366,-0.60092 4.52113,-0.85495 6.8125,-0.75 6.09127,0.27899 12.01533,3.20618 15.9375,7.875 2.88075,-1.34988 6.01346,-2.1597 9.1875,-2.375 3.97552,-0.26967 8.01166,0.39942 11.6875,1.9375 1.13555,-1.13282 2.39554,-2.14081 3.75,-3 4.26674,-2.70656 9.6039,-3.7159 14.61769,-3.08946 v 0 c -4.57552,3.1222 -9.32992,5.97071 -14.30519,8.40196 -9.64342,4.71241 -20.27701,7.84384 -31,7.375 -11.05177,-0.48322 -21.54779,-4.71643 -31.8087,-8.85029 -7.48874,-3.01702 -15.08056,-6.03695 -23.08084,-7.12284 -11.00712,-1.49402 -22.38285,0.81641 -32.30725,5.8059 -6.77569,3.40648 -12.91334,8.01863 -19.83039,11.12805 -6.57947,2.95766 -13.74898,4.49075 -20.94804,4.94975 -10.58422,0.67483 -21.54551,-1.04763 -30.670761,-6.45235 -5.25213,-3.11074 -10.64127,-8.22828 -14.57519,-12.89582 -9.686,-11.4923 -15.12275,-24.85633 -17.50978,-39.69525 -2.13281,-13.25862 -1.16826,-26.98882 2.65165,-39.86314 3.26522,-11.0048 8.56636,-21.32902 14.84925,-30.93592 10.86584,-16.61451 24.616181,-31.11088 38.272151,-45.52 12.7198,-13.42132 25.559,-27.03038 34.64823,-43.13352 5.22617,-9.25906 9.1773,-19.38604 10.25305,-29.96365 0.24483,-2.40733 0.34024,-4.82813 0.35355,-7.24784 0.0192,-3.49377 -0.14461,-7.05335 -1.32582,-10.34144 -1.36903,-3.8109 -4.06674,-7.0685 -7.33624,-9.45755 -2.33804,-1.70842 -4.96522,-2.99671 -7.68978,-3.97748 -7.32272,-2.63601 -15.43183,-3.04146 -22.98097,-1.14904"
           style="fill:#fabc8d;fill-opacity:1;stroke:#000000;stroke-width:2;stroke-linecap:butt;stroke-linejoin:miter;stroke-miterlimit:4;stroke-dasharray:none;stroke-opacity:1"
           id="path1568" />
        <path
           id="path1430"
           d="m 76.96875,87.5625 c -1.532552,1.670329 -3.649648,2.793531 -5.892016,3.125942 -2.242369,0.332411 -4.594266,-0.128301 -6.545484,-1.282192 0.415255,-1.434874 1.085035,-2.795696 1.96875,-4 0.834276,-1.13693 1.864846,-2.138732 3.068843,-2.87291 1.203997,-0.734177 2.584625,-1.195036 3.993657,-1.25209 2.088033,-0.08455 4.196821,0.754307 5.65625,2.25 -0.422792,1.494276 -1.200115,2.886979 -2.25,4.03125 z"
           style="opacity:1;fill:#ffffff;stroke:#000000;stroke-width:2;stroke-linecap:butt;stroke-linejoin:miter;stroke-miterlimit:4;stroke-dasharray:none;stroke-opacity:1" />
        <path
           id="path1438"
           d="m 68.109375,84.46875 c 0.331844,0.862856 0.852835,1.652398 1.515625,2.296875 0.498373,0.484603 1.076095,0.887418 1.703125,1.1875 -0.04072,-0.430783 -0.108603,-0.858997 -0.203125,-1.28125 -0.27629,-1.234258 -0.78229,-2.416701 -1.484375,-3.46875"
           style="fill:#000000;stroke:#000000;stroke-width:1px;stroke-linecap:butt;stroke-linejoin:miter;stroke-opacity:1" />
        <path
           d="m 267.57813,77.441407 c 5.84408,-4.800937 10.24606,-11.335128 12.5,-18.554688 0.70363,-2.253782 1.20342,-4.578216 1.36718,-6.933594 0.12223,-1.758099 0.0566,-3.529196 -0.19531,-5.273437 -1.94047,1.629067 -3.96203,3.161538 -6.05469,4.589844 -6.54471,4.46697 -13.78879,7.907083 -21.38671,10.15625 -0.0801,1.601546 -0.34278,3.19389 -0.78125,4.736328 -0.77145,2.713791 -2.09153,5.27039 -3.85743,7.470703 1.0783,0.08281 2.16915,1.75e-4 3.22266,-0.244141 0.97192,-0.225394 1.91188,-0.588183 2.7832,-1.074218 0.0641,0.910531 0.0478,1.826712 -0.0488,2.734375 -0.28325,2.662656 -1.26952,5.247359 -2.83203,7.421875"
           style="fill:#ffffff;stroke:none;stroke-width:1px;stroke-linecap:butt;stroke-linejoin:miter;stroke-opacity:1"
           id="path1272" />
        <path
           d="m 88.195802,100.03661 c -1.783587,0.11896 -3.359059,0.73235 -4.986459,1.47188 -1.439431,0.65411 -2.76906,1.52437 -4.07415,2.41687 -8.044188,5.50114 -15.396312,11.98265 -22.097087,19.05874 -3.389871,3.57974 -6.616676,7.31388 -9.667476,11.18665 -1.165709,1.47978 -2.306155,2.98031 -3.521723,4.41942 -0.816783,0.96699 -1.678508,1.9158 -2.727609,2.62403 -1.067303,0.72052 -2.299333,1.17005 -3.55625,1.45012 -2.289197,0.51009 -4.667455,0.47501 -6.974393,0.89769 -5.777147,1.05849 -10.903553,5.17115 -13.189558,10.58133 1.666151,-1.15116 3.451173,-2.13017 5.317471,-2.9164 1.801134,-0.75878 3.677852,-1.33802 5.593325,-1.72634 v 0 c -0.904414,1.04522 -1.735747,2.15367 -2.485923,3.31457 -1.787247,2.76578 -3.110006,5.83091 -3.722661,9.2337 3.609159,-3.83818 7.843318,-7.27035 12.837709,-9.06107 1.716248,-0.61535 3.498208,-1.08117 5.109952,-1.93349 2.807703,-1.48476 4.897724,-4.03548 6.629126,-6.69818 1.33429,-2.05199 2.778405,-3.89658 4.074151,-5.97312 2.296928,-3.68102 4.991812,-7.10663 7.94114,-10.28896 4.487183,-4.84168 9.565666,-9.12418 15.019114,-12.84393 4.973805,-3.39259 10.267148,-6.32325 15.813228,-8.6662 0.765401,-0.32334 1.558177,-0.65042 2.140656,-1.24296 0.535591,-0.54485 0.851045,-1.28188 0.966747,-2.03708 0.102162,-0.66682 0.0931,-1.36881 -0.138107,-2.00255 -0.164853,-0.45186 -0.432653,-0.78031 -0.931619,-0.97619 -1.172419,-0.460234 -2.112878,-0.372346 -3.369604,-0.28853 z"
           style="fill:#fabc8d;fill-opacity:1;stroke:#000000;stroke-width:2;stroke-linecap:butt;stroke-linejoin:miter;stroke-miterlimit:4;stroke-dasharray:none;stroke-opacity:1"
           id="path1405" />
        <path
           id="path1383"
           d="m 58.335938,111.92188 c -0.642718,0.0467 -1.278531,0.18606 -1.888672,0.41601 -1.910387,0.72 -3.386604,2.26017 -4.025391,4.19922 l -0.304687,0.92578 0.541015,0.8125 c 0.567729,0.84922 1.169734,1.67443 1.804688,2.47461 2.803025,3.53242 6.145156,6.11116 10.011719,8.43164 1.823563,1.03205 3.999562,1.4755 4.989568,1.25876 -1.531349,-2.18215 -1.091267,-1.43942 -2.435858,-3.7324 -0.542197,-0.9672 -1.071122,-1.94272 -1.583984,-2.92578 -1.050223,-2.01307 -1.698882,-3.80063 -2.43457,-5.84472 -0.507216,-1.40928 -0.911543,-2.85666 -1.210938,-4.32422 l -0.259766,-1.27539 -1.273437,-0.27734 c -0.636989,-0.13925 -1.28697,-0.18542 -1.929687,-0.13867 z m 0,4.12304 c 0.277777,1.09018 0.529127,2.18742 0.910156,3.2461 0.169772,0.4717 0.420774,0.88123 0.607422,1.34179 -0.759162,-0.78502 -1.577532,-1.5143 -2.25586,-2.36914 -0.318015,-0.40077 -0.604896,-0.82535 -0.904297,-1.24023 0.318859,-0.41092 0.707864,-0.77069 1.166016,-0.94336 0.148216,-0.0559 0.316871,-0.006 0.476563,-0.0352 z"
           style="color:#000000;font-style:normal;font-variant:normal;font-weight:normal;font-stretch:normal;font-size:medium;line-height:normal;font-family:sans-serif;font-variant-ligatures:normal;font-variant-position:normal;font-variant-caps:normal;font-variant-numeric:normal;font-variant-alternates:normal;font-variant-east-asian:normal;font-feature-settings:normal;font-variation-settings:normal;text-indent:0;text-align:start;text-decoration:none;text-decoration-line:none;text-decoration-style:solid;text-decoration-color:#000000;letter-spacing:normal;word-spacing:normal;text-transform:none;writing-mode:lr-tb;direction:ltr;text-orientation:mixed;dominant-baseline:auto;baseline-shift:baseline;text-anchor:start;white-space:normal;shape-padding:0;shape-margin:0;inline-size:0;clip-rule:nonzero;display:inline;overflow:visible;visibility:visible;opacity:1;isolation:auto;mix-blend-mode:normal;color-interpolation:sRGB;color-interpolation-filters:linearRGB;solid-color:#000000;solid-opacity:1;vector-effect:none;fill:#000000;fill-opacity:1;fill-rule:nonzero;stroke:none;stroke-width:4;stroke-linecap:butt;stroke-linejoin:miter;stroke-miterlimit:4;stroke-dasharray:none;stroke-dashoffset:0;stroke-opacity:1;color-rendering:auto;image-rendering:auto;shape-rendering:auto;text-rendering:auto;enable-background:accumulate;stop-color:#000000;stop-opacity:1" />
        <path
           d="m 63.989258,124.92676 c -1.069332,-2.0497 -2.077527,-4.13708 -2.86043,-6.31235 -0.539834,-1.49991 -0.971312,-3.03881 -1.28996,-4.60074 -0.889064,-0.19435 -1.833961,-0.12563 -2.685547,0.19532 -1.319795,0.49741 -2.390723,1.6145 -2.832032,2.9541 0.537518,0.80403 1.107811,1.58614 1.708985,2.34375 2.652467,3.34268 5.911434,6.20259 9.570312,8.39843 -0.551999,-0.98469 -1.089189,-1.97767 -1.611328,-2.97851 z"
           style="fill:#ffffff;stroke:none;stroke-width:1px;stroke-linecap:butt;stroke-linejoin:miter;stroke-opacity:1"
           id="path1374" />
        <path
           id="path1410"
           d="m 90.642764,106.06613 c -2.563793,1.22591 -4.940906,2.84132 -7.024599,4.77371 -1.754271,1.62689 -3.30069,3.47765 -4.589844,5.49317"
           style="fill:none;stroke:#000000;stroke-width:2;stroke-linecap:round;stroke-linejoin:miter;stroke-miterlimit:4;stroke-dasharray:none;stroke-opacity:1" />
        <path
           id="path1414"
           d="m 69.385408,111.27702 c -0.631115,0.24956 -1.301092,0.40056 -1.978244,0.44585 -1.273031,0.0851 -2.569132,-0.21065 -3.679165,-0.83969"
           style="fill:none;stroke:#000000;stroke-width:2;stroke-linecap:butt;stroke-linejoin:miter;stroke-miterlimit:4;stroke-dasharray:none;stroke-opacity:1" />
        <path
           id="path1418"
           d="m 52.8125,94.1875 c 1.890609,-1.015701 3.59406,-2.378463 5,-4 2.364397,-2.726971 3.841393,-6.107396 6,-9 2.221497,-2.976878 5.274001,-5.464145 8.875,-6.375 3.14866,-0.796438 6.458571,-0.349845 9.6875,0 2.473668,0.268014 4.953794,0.476428 7.4375,0.625"
           style="fill:none;stroke:#000000;stroke-width:2;stroke-linecap:round;stroke-linejoin:miter;stroke-miterlimit:4;stroke-dasharray:none;stroke-opacity:1" />
        <path
           id="path1422"
           d="m 35.753087,92.01227 c 0.511034,-1.186993 1.181877,-2.305065 1.988737,-3.314563 1.641105,-2.053259 3.85234,-3.645966 6.319767,-4.552"
           style="fill:none;stroke:#000000;stroke-width:2;stroke-linecap:round;stroke-linejoin:miter;stroke-miterlimit:4;stroke-dasharray:none;stroke-opacity:1" />
        <path
           d="m 75.3125,81.5625 3.90625,1.96875 -2.40625,4.5 -1.46875,1.5625 -2.96875,1.46875 h -3.96875 l -3.875,-1.65625 2.290341,-3.271806 c -0.114895,0.525279 -0.08399,1.08167 0.08838,1.590991 0.175999,0.520054 0.49644,0.986576 0.899068,1.359835 0.402628,0.373258 0.885778,0.654924 1.399029,0.849873 1.370928,0.520724 2.942202,0.408511 4.286835,-0.176776 0.702725,-0.30588 1.363962,-0.748182 1.811961,-1.37002 0.369506,-0.512887 0.580497,-1.133399 0.631405,-1.763475 0.05091,-0.630076 -0.05525,-1.268808 -0.277849,-1.860447 -0.495909,-1.318046 -1.591352,-2.396891 -2.916816,-2.872621 z"
           style="fill:#000000;stroke:none;stroke-width:1px;stroke-linecap:butt;stroke-linejoin:miter;stroke-opacity:1"
           id="path1450" />
        <path
           id="path1474"
           d="m 39.708465,103.58009 c -0.231232,0.14542 -0.452808,0.3112 -0.629767,0.51929 -0.222172,0.26125 -0.36864,0.58748 -0.408796,0.92807 -0.03832,0.32501 0.0212,0.66226 0.176777,0.95018 0.113328,0.20973 0.281397,0.39585 0.497184,0.49718 0.147964,0.0695 0.312191,0.0969 0.475088,0.11049 0.774645,0.0648 1.541627,-0.16496 2.276,-0.41985 0.845904,-0.2936 1.678529,-0.62403 2.508019,-0.96122 0.297931,-0.12111 0.596806,-0.24376 0.872835,-0.4088 0.145126,-0.0868 0.288967,-0.19127 0.364602,-0.3425 0.07632,-0.15259 0.07217,-0.3376 0.01227,-0.49735 -0.05991,-0.15975 -0.171231,-0.29616 -0.299528,-0.40863 -0.254414,-0.22303 -0.573805,-0.35753 -0.894932,-0.46404 -0.813059,-0.26968 -1.680341,-0.38285 -2.53347,-0.30561 -0.853129,0.0772 -1.691132,0.34677 -2.416278,0.80279 z"
           style="fill:#000000;stroke:none;stroke-width:1px;stroke-linecap:butt;stroke-linejoin:miter;stroke-opacity:1" />
        <path
           id="path1478"
           d="m 41.498329,112.05433 c 0.329608,0.0635 0.67094,0.002 0.993095,-0.092 0.322154,-0.0943 0.634897,-0.22157 0.962497,-0.29469 0.667128,-0.1489 1.360536,-0.0668 2.043981,-0.0552 0.503536,0.009 1.011625,-0.0224 1.498161,-0.15246 0.486537,-0.13001 0.95268,-0.36366 1.308169,-0.72038 0.224027,-0.2248 0.400647,-0.49478 0.53033,-0.78445 0.121425,-0.27122 0.202982,-0.56465 0.198874,-0.86178 -0.0013,-0.0954 -0.01156,-0.19117 -0.03894,-0.28253 -0.02739,-0.0914 -0.07246,-0.17835 -0.137835,-0.2478 -0.09762,-0.10371 -0.235438,-0.16283 -0.37565,-0.18783 -0.174815,-0.0312 -0.354429,-0.0132 -0.53033,0.0111 -0.957191,0.13223 -1.877986,0.44754 -2.795282,0.7513 -0.835333,0.27661 -1.676153,0.54571 -2.541165,0.70711 -0.422142,0.0788 -0.85121,0.1322 -1.259534,0.26516 -0.197809,0.0644 -0.394809,0.15068 -0.541378,0.29831 -0.160868,0.16203 -0.248657,0.39159 -0.247224,0.61991 0.0014,0.22833 0.08978,0.45336 0.236174,0.62858 0.174725,0.20912 0.428463,0.34614 0.696059,0.39766 z"
           style="fill:#000000;stroke:#000000;stroke-width:1px;stroke-linecap:butt;stroke-linejoin:miter;stroke-opacity:1" />
        <path
           id="path1482"
           d="m 31.226658,109.92363 c 0.07745,-0.0941 0.193601,-0.15029 0.312769,-0.17601 0.119168,-0.0257 0.242431,-0.0236 0.364237,-0.0185 0.668923,0.0278 1.345326,0.14474 1.941522,0.44934 0.20257,0.1035 0.40033,0.22999 0.625,0.26562 0.08557,0.0136 0.173716,0.0133 0.258367,-0.005 0.08465,-0.0185 0.165729,-0.0554 0.232384,-0.11079 0.08975,-0.0745 0.150835,-0.18065 0.179294,-0.29378 0.02846,-0.11313 0.02539,-0.2329 3.94e-4,-0.34684 -0.05331,-0.24305 -0.204183,-0.45706 -0.391911,-0.62038 -0.187728,-0.16332 -0.41128,-0.2801 -0.639339,-0.37962 -0.6949,-0.30325 -1.447318,-0.45875 -2.140625,-0.76563 -0.967492,-0.42824 -1.805038,-1.15844 -2.328125,-2.07812 -0.258693,-0.45483 -0.441836,-0.95864 -0.48368,-1.48022 -0.04184,-0.52157 0.06374,-1.0617 0.343055,-1.50416 0.101273,-0.16042 0.223651,-0.30626 0.34375,-0.45312 0.06654,-0.0814 0.132741,-0.16355 0.186827,-0.25369 0.05409,-0.0901 0.09601,-0.18902 0.110048,-0.29319 0.01927,-0.143 -0.01542,-0.2902 -0.08244,-0.41798 -0.06702,-0.12779 -0.165038,-0.23732 -0.274303,-0.33157 -0.218529,-0.1885 -0.481814,-0.31842 -0.705759,-0.50045 C 28.666924,100.27519 28.405247,99.763465 28.375,99.234425 L 28,102.59375 l 1.03125,5.28125 2.132908,2.47441 c -0.02913,-0.0695 -0.03892,-0.14701 -0.02797,-0.22158 0.01095,-0.0746 0.04259,-0.14599 0.09047,-0.2042 z"
           style="fill:#000000;stroke:none;stroke-width:1px;stroke-linecap:butt;stroke-linejoin:miter;stroke-opacity:1" />
        <path
           d="m 123.625,96.75 c 1.40979,1.097114 2.42209,2.694303 2.8125,4.4375 0.39822,1.77806 0.14621,3.69231 -0.6875,5.3125 -0.96707,1.87935 -2.63911,3.29424 -4.375,4.5"
           style="opacity:1;fill:none;fill-opacity:1;stroke:#000000;stroke-width:2;stroke-linecap:round;stroke-linejoin:miter;stroke-miterlimit:4;stroke-dasharray:none;stroke-opacity:1"
           id="path1043" />
        <path
           id="path1045"
           d="m 181.90234,159.33984 c 0.0194,-0.78105 -0.29105,-1.56501 -0.83985,-2.1211 -0.54443,-0.55167 -1.28287,-0.86324 -2.0147,-1.11852 -1.51624,-0.5289 -3.11061,-0.87685 -4.71626,-0.85245 -0.22068,0.003 -0.44349,0.0136 -0.66024,-0.0281 -0.10837,-0.0208 -0.21475,-0.0548 -0.31191,-0.10707 -0.0972,-0.0523 -0.18503,-0.12342 -0.25081,-0.21202 -0.0846,-0.11402 -0.13056,-0.25501 -0.13666,-0.39689 -0.006,-0.14189 0.0267,-0.28436 0.0876,-0.41266 0.12175,-0.25661 0.35017,-0.45024 0.60149,-0.58256 0.58705,-0.30909 1.29034,-0.30929 1.94454,-0.19888 0.74995,0.12657 1.46968,0.38633 2.19857,0.60351 0.72889,0.21717 1.48386,0.39383 2.24295,0.34667 0.89043,-0.0553 1.75773,-0.42948 2.40897,-1.03924"
           style="fill:#000000;stroke:#000000;stroke-width:1px;stroke-linecap:butt;stroke-linejoin:miter;stroke-opacity:1" />
        <path
           id="path1049"
           d="m 159.95312,160.5625 c 0.29289,-0.54433 0.69351,-1.03042 1.17188,-1.42188 0.73397,-0.60063 1.64231,-0.97095 2.57812,-1.125 0.65873,-0.10844 1.3414,-0.11545 1.96875,-0.34375 0.12725,-0.0463 0.25221,-0.10199 0.36265,-0.18036 0.11043,-0.0784 0.20626,-0.18075 0.26235,-0.30401 0.0469,-0.10303 0.0648,-0.21833 0.057,-0.33126 -0.008,-0.11293 -0.0409,-0.22348 -0.0913,-0.32484 -0.10081,-0.20271 -0.26795,-0.36559 -0.45002,-0.50015 -0.35592,-0.26304 -0.77231,-0.42887 -1.17835,-0.60494 -0.40605,-0.17607 -0.81439,-0.37032 -1.13415,-0.67631 -0.24936,-0.23863 -0.43721,-0.54101 -0.54064,-0.87029 -0.10343,-0.32928 -0.12223,-0.68476 -0.0541,-1.02311"
           style="fill:#000000;stroke:none;stroke-width:1px;stroke-linecap:butt;stroke-linejoin:miter;stroke-opacity:1" />
        <path
           id="path1053"
           d="m 162.1875,193.23437 c 0.17547,-0.74543 0.20218,-1.52557 0.0781,-2.28125 -0.21267,-1.29517 -0.88329,-2.51796 -1.89062,-3.35937 -0.79715,-0.66585 -1.77417,-1.0811 -2.76563,-1.39063 -0.65666,-0.20501 -1.34555,-0.37721 -1.89062,-0.79688 -0.24413,-0.18797 -0.45516,-0.42607 -0.5783,-0.70851 -0.12314,-0.28243 -0.15267,-0.61155 -0.0467,-0.90086 0.0925,-0.25264 0.28303,-0.46269 0.51024,-0.60678 0.22722,-0.14409 0.48971,-0.2257 0.75538,-0.26822 0.48442,-0.0775 0.9833,-0.0288 1.45841,0.0935 0.47511,0.12225 0.92874,0.31651 1.36972,0.53149 1.2593,0.61393 2.47181,1.41597 3.85937,1.60938 1.00278,0.13978 2.04998,-0.0613 2.92969,-0.5625"
           style="fill:#000000;stroke:none;stroke-width:1px;stroke-linecap:butt;stroke-linejoin:miter;stroke-opacity:1" />
        <path
           id="path1057"
           d="m 143.45312,187.43359 c 0.4344,-0.45274 0.9577,-0.81985 1.53125,-1.07422 0.95273,-0.42254 2.02413,-0.52714 3.0625,-0.4375 0.19437,0.0168 0.38949,0.0402 0.58401,0.0252 0.19453,-0.0149 0.39173,-0.0715 0.54099,-0.19712 0.15041,-0.12659 0.24171,-0.31921 0.25,-0.51563 0.007,-0.16234 -0.0406,-0.32416 -0.11898,-0.46648 -0.0784,-0.14231 -0.18682,-0.26628 -0.30579,-0.37695 -0.23794,-0.22134 -0.51984,-0.39303 -0.7471,-0.62532 -0.31705,-0.32407 -0.51484,-0.76233 -0.5481,-1.21448 -0.0332,-0.45215 0.0983,-0.91463 0.3645,-1.28161"
           style="fill:#000000;stroke:none;stroke-width:1px;stroke-linecap:butt;stroke-linejoin:miter;stroke-opacity:1" />
        <path
           id="path1061"
           d="m 138.97656,221.23047 c 0.2644,-0.76237 0.34806,-1.58677 0.24219,-2.38672 -0.12814,-0.96822 -0.53062,-1.88953 -1.09375,-2.6875 -0.82221,-1.16507 -2.01013,-2.08704 -3.375,-2.5 -0.31612,-0.0957 -0.6409,-0.16448 -0.94899,-0.28349 -0.30809,-0.119 -0.60472,-0.29464 -0.80101,-0.56026 -0.14452,-0.19556 -0.22862,-0.43494 -0.2393,-0.67787 -0.0107,-0.24292 0.052,-0.48845 0.1768,-0.69713 0.16632,-0.27806 0.43752,-0.48439 0.73699,-0.60808 0.29947,-0.12369 0.62653,-0.1692 0.95051,-0.17317 1.276,-0.0156 2.47832,0.59156 3.53125,1.3125 0.84394,0.57784 1.644,1.24539 2.59375,1.625 1.15812,0.4629 2.49741,0.45284 3.64844,-0.0274"
           style="fill:#000000;stroke:none;stroke-width:1px;stroke-linecap:butt;stroke-linejoin:miter;stroke-opacity:1" />
        <path
           id="path1065"
           d="m 120.22768,213.52158 c 0.71361,-0.52229 1.51841,-0.91963 2.36696,-1.16858 1.01379,-0.29743 2.08376,-0.38211 3.13778,-0.30935 0.50849,0.0351 1.01501,0.10637 1.5247,0.11048 0.1854,0.001 0.37335,-0.006 0.55076,-0.0602 0.17742,-0.0539 0.34518,-0.15836 0.44361,-0.31548 0.0575,-0.0917 0.0894,-0.1985 0.0974,-0.30646 0.008,-0.10796 -0.008,-0.21707 -0.0404,-0.32026 -0.0654,-0.2064 -0.19666,-0.38603 -0.34426,-0.54442 -0.24067,-0.25826 -0.52733,-0.46828 -0.80358,-0.68806 -0.27625,-0.21978 -0.54719,-0.45468 -0.74322,-0.74826 -0.21463,-0.32145 -0.33126,-0.70741 -0.33055,-1.09393 7.1e-4,-0.38652 0.11874,-0.77206 0.33455,-1.09272"
           style="fill:#000000;stroke:none;stroke-width:1px;stroke-linecap:butt;stroke-linejoin:miter;stroke-opacity:1" />
        <path
           id="path1069"
           d="m 119.95703,242.74218 c 0.26172,-0.75758 0.28796,-1.59469 0.0742,-2.36718 -0.19974,-0.72183 -0.60283,-1.37907 -1.11513,-1.92541 -0.51229,-0.54635 -1.13166,-0.98519 -1.79112,-1.34022 -0.82296,-0.44305 -1.71332,-0.76095 -2.5,-1.26562 -0.35647,-0.22868 -0.69553,-0.50142 -0.92188,-0.85938 -0.1335,-0.21111 -0.22591,-0.45365 -0.22953,-0.7034 -0.002,-0.12488 0.0188,-0.25049 0.0649,-0.36658 0.0461,-0.11608 0.11789,-0.22244 0.21158,-0.30502 0.11798,-0.104 0.26742,-0.1679 0.42112,-0.20127 0.1537,-0.0334 0.31228,-0.0376 0.4695,-0.0331 1.22675,0.035 2.38222,0.58923 3.40625,1.26562 0.89756,0.59285 1.74235,1.29542 2.75,1.67188 0.92077,0.344 1.94939,0.3925 2.89844,0.13666"
           style="fill:#000000;stroke:none;stroke-width:1px;stroke-linecap:butt;stroke-linejoin:miter;stroke-opacity:1" />
        <path
           id="path1073"
           d="m 98.913148,236.81057 c 0.582967,-0.57773 1.263602,-1.05666 2.004252,-1.4103 0.85649,-0.40895 1.79267,-0.64954 2.74003,-0.70711 0.43446,-0.0264 0.87152,-0.0148 1.30373,-0.0663 0.192,-0.0229 0.38461,-0.0588 0.56135,-0.13721 0.17675,-0.0784 0.33787,-0.20269 0.43302,-0.37102 0.0624,-0.11039 0.0947,-0.23649 0.10173,-0.3631 0.007,-0.12661 -0.0105,-0.25382 -0.0431,-0.37637 -0.0652,-0.2451 -0.18869,-0.46982 -0.30171,-0.69685 -0.19762,-0.39697 -0.36671,-0.81077 -0.46301,-1.24363 -0.0963,-0.43286 -0.11813,-0.88649 -0.0231,-1.31963 0.079,-0.36019 0.23873,-0.70245 0.46404,-0.99437"
           style="fill:#000000;stroke:none;stroke-width:1px;stroke-linecap:butt;stroke-linejoin:miter;stroke-opacity:1" />
        <path
           id="path1077"
           d="m 103.74218,264.07422 c -0.14363,-0.62272 -0.36741,-1.22692 -0.66406,-1.79297 -0.63487,-1.21141 -1.62515,-2.25445 -2.85937,-2.84375 -1.127035,-0.53812 -2.398955,-0.68224 -3.578125,-1.09375 -0.354107,-0.12358 -0.703582,-0.27349 -1.003691,-0.49842 -0.300109,-0.22494 -0.549656,-0.53155 -0.652559,-0.89221 -0.05785,-0.20275 -0.06786,-0.42073 -0.01563,-0.625 0.07003,-0.27393 0.249402,-0.51232 0.472856,-0.68556 0.223454,-0.17323 0.489198,-0.28527 0.761519,-0.36131 0.787337,-0.21986 1.634947,-0.14706 2.418763,0.085 0.783815,0.23211 1.513117,0.61701 2.221867,1.02433 0.96987,0.55738 1.92709,1.16788 3,1.48438 1.03189,0.30439 2.14711,0.3208 3.1875,0.0469"
           style="fill:#000000;stroke:none;stroke-width:1px;stroke-linecap:butt;stroke-linejoin:miter;stroke-opacity:1" />
        <path
           id="path1081"
           d="m 81.560462,259.84745 c 0.523768,-0.61803 1.101122,-1.19063 1.723458,-1.70928 0.626763,-0.52233 1.323412,-1.00084 2.121321,-1.17115 0.434046,-0.0926 0.882659,-0.0904 1.325825,-0.0663 0.177124,0.01 0.355871,0.0227 0.531038,-0.005 0.175167,-0.028 0.349553,-0.10167 0.463331,-0.23776 0.06028,-0.0721 0.101439,-0.15934 0.123612,-0.25067 0.02217,-0.0913 0.02569,-0.1867 0.01529,-0.28011 -0.0208,-0.18682 -0.09603,-0.36329 -0.183093,-0.52988 -0.217236,-0.41565 -0.512701,-0.78853 -0.707107,-1.21534 -0.395396,-0.86807 -0.321042,-1.93383 0.191061,-2.73858 l -2.92704,3.43841 z"
           style="fill:#000000;stroke:none;stroke-width:1px;stroke-linecap:butt;stroke-linejoin:miter;stroke-opacity:1" />
        <path
           id="path1085"
           d="m 166.0625,131.625 c 0.0644,-0.73978 0.40379,-1.45244 0.9375,-1.96875 0.42079,-0.40707 0.95837,-0.69173 1.53125,-0.8125 0.30611,-0.0645 0.62238,-0.0836 0.92077,-0.17754 0.1492,-0.047 0.29365,-0.11309 0.41812,-0.20781 0.12448,-0.0947 0.22851,-0.21922 0.28611,-0.36465 0.0602,-0.15206 0.0676,-0.3226 0.0328,-0.48239 -0.0349,-0.15979 -0.11068,-0.30907 -0.20937,-0.43949 -0.19739,-0.26083 -0.4793,-0.44295 -0.7609,-0.60937 -0.6687,-0.3952 -1.37302,-0.73511 -1.99778,-1.19665 -1.15768,-0.85524 -2.00294,-2.12425 -2.34597,-3.5221"
           style="fill:#000000;stroke:none;stroke-width:1px;stroke-linecap:butt;stroke-linejoin:miter;stroke-opacity:1" />
        <path
           id="path1089"
           d="m 182.79297,125.64844 c -0.35475,-0.46895 -0.84006,-0.83806 -1.38672,-1.05469 -0.49337,-0.19551 -1.03776,-0.26683 -1.5625,-0.1875 -0.52608,0.0795 -1.01871,0.30527 -1.48609,0.55951 -0.46739,0.25424 -0.9189,0.54003 -1.40565,0.75489 -0.60605,0.26753 -1.26556,0.42168 -1.92802,0.41729 -0.19196,-0.001 -0.38774,-0.0166 -0.56506,-0.0902 -0.0887,-0.0368 -0.17183,-0.0881 -0.24051,-0.15513 -0.0687,-0.067 -0.12255,-0.15017 -0.15023,-0.24207 -0.0386,-0.12816 -0.0248,-0.26803 0.0189,-0.39455 0.0437,-0.12651 0.11579,-0.24129 0.1942,-0.34976 0.34655,-0.47943 0.82046,-0.85106 1.30718,-1.18728 0.48673,-0.33622 0.99472,-0.64526 1.44282,-1.03147 0.53898,-0.46454 0.98774,-1.04373 1.24805,-1.70595 0.28386,-0.72214 0.33462,-1.53382 0.14296,-2.2857"
           style="fill:#000000;stroke:none;stroke-width:1px;stroke-linecap:butt;stroke-linejoin:miter;stroke-opacity:1" />
        <path
           id="path1097"
           d="m 155.18784,103.79002 c -0.65219,-0.0308 -1.3086,0.0288 -1.94454,0.17677 -0.50515,0.11751 -0.99829,0.29099 -1.45841,0.53033 -0.41299,0.21482 -0.80855,0.49255 -1.06066,0.88389 -0.13647,0.21183 -0.22782,0.45558 -0.24307,0.7071 -0.0142,0.23443 0.0376,0.46955 0.12487,0.68761 0.0872,0.21806 0.20915,0.42053 0.33917,0.61612 0.30178,0.45397 0.65041,0.87678 1.03856,1.25954 l -6.16508,-2.276 c 0.48654,0.0337 0.97693,0.0114 1.4584,-0.0663 0.23875,-0.0385 0.47653,-0.091 0.70111,-0.18078 0.22458,-0.0897 0.43639,-0.21809 0.60262,-0.39374 0.19963,-0.21094 0.32714,-0.48457 0.38415,-0.76934 0.057,-0.28478 0.0458,-0.58053 -0.008,-0.86584 -0.15992,-0.84019 -0.70945,-1.59787 -1.45841,-2.01084 z"
           style="fill:#000000;stroke:none;stroke-width:1px;stroke-linecap:butt;stroke-linejoin:miter;stroke-opacity:1" />
        <path
           style="fill:#000000;stroke:none;stroke-width:1px;stroke-linecap:butt;stroke-linejoin:miter;stroke-opacity:1"
           d="m 94.93008,281.85749 c -0.830091,0.75697 -1.889637,1.25893 -3.001183,1.4218 -1.145856,0.1679 -2.311111,-0.0177 -3.452162,-0.21561 -1.017953,-0.17658 -2.075192,-0.36188 -3.071495,-0.0884 -0.257858,0.0708 -0.509816,0.17301 -0.726854,0.3292 -0.217037,0.15619 -0.398113,0.36932 -0.488485,0.62098 -0.06799,0.18934 -0.08305,0.39647 -0.05011,0.59493 0.03294,0.19847 0.113196,0.38814 0.226886,0.55412 0.208701,0.30468 0.525224,0.52459 0.867199,0.66403 0.341974,0.13943 0.710066,0.20329 1.077345,0.24195 0.994158,0.10465 2.010887,0.0326 2.983107,0.26516 1.233532,0.29508 2.338557,1.09425 3.005089,2.17333"
           id="path1066" />
        <path
           style="fill:#000000;stroke:none;stroke-width:1px;stroke-linecap:butt;stroke-linejoin:miter;stroke-opacity:1"
           d="m 68.03125,287.8125 c 0.412969,-0.57794 0.922058,-1.08703 1.5,-1.5 0.643384,-0.45973 1.369161,-0.79886 2.125,-1.03125 0.903238,-0.27771 1.844906,-0.4039 2.78125,-0.53125 0.261659,-0.0356 0.526099,-0.0721 0.772309,-0.16752 0.246209,-0.0955 0.476203,-0.25693 0.602691,-0.48873 0.09769,-0.17903 0.127802,-0.39112 0.100255,-0.5932 -0.02755,-0.20208 -0.110677,-0.39433 -0.225255,-0.56305 -0.230242,-0.33905 -0.58296,-0.58165 -0.962522,-0.73624 -0.379562,-0.15459 -0.787237,-0.22713 -1.193728,-0.27939 -0.293412,-0.0377 -0.588631,-0.0655 -0.87822,-0.12594 -0.289588,-0.0604 -0.57569,-0.15502 -0.823795,-0.31613 -0.304131,-0.1975 -0.542953,-0.49382 -0.671333,-0.83296 -0.128379,-0.33915 -0.145642,-0.71934 -0.04853,-1.06872 l -1.616494,3.42506 z"
           id="path1070" />
        <path
           style="fill:#000000;stroke:none;stroke-width:1px;stroke-linecap:butt;stroke-linejoin:miter;stroke-opacity:1"
           d="m 88.964844,318.20703 c -0.441083,-0.448 -0.94001,-0.83898 -1.480469,-1.16016 -1.609593,-0.95655 -3.534113,-1.2639 -5.40625,-1.23437 -1.147042,0.0181 -2.290316,0.15513 -3.4375,0.15625 -0.298892,2.9e-4 -0.603464,-0.01 -0.885712,-0.10798 -0.141124,-0.0492 -0.27542,-0.12058 -0.388823,-0.21791 -0.113403,-0.0973 -0.205436,-0.22124 -0.256715,-0.36161 -0.05914,-0.1619 -0.06243,-0.34103 -0.02674,-0.50966 0.03568,-0.16863 0.108932,-0.32753 0.198618,-0.47472 0.225132,-0.36948 0.55455,-0.66912 0.924853,-0.89289 0.370303,-0.22377 0.781127,-0.37431 1.200147,-0.48211 1.584372,-0.40759 3.264542,-0.21226 4.875,-0.5 1.634787,-0.29208 3.17477,-1.09387 4.351562,-2.26562"
           id="path1074" />
        <path
           style="fill:#000000;stroke:none;stroke-width:1px;stroke-linecap:butt;stroke-linejoin:miter;stroke-opacity:1"
           d="m 64.09375,319.66406 c 0.134453,-0.69126 0.449844,-1.34651 0.90625,-1.88281 0.527551,-0.61989 1.250694,-1.08066 2.046875,-1.25 0.19125,-0.0407 0.385879,-0.0648 0.576038,-0.11031 0.190158,-0.0455 0.378451,-0.1141 0.533337,-0.23344 0.139029,-0.10712 0.247481,-0.25407 0.306313,-0.41942 0.05883,-0.16536 0.06746,-0.34861 0.02181,-0.51808 -0.04274,-0.15867 -0.131749,-0.30304 -0.245974,-0.42117 -0.114225,-0.11814 -0.253109,-0.21078 -0.401146,-0.28211 -0.296074,-0.14267 -0.62449,-0.20037 -0.94663,-0.26547 -0.488504,-0.0987 -0.976801,-0.21915 -1.427522,-0.43183 -0.45072,-0.21268 -0.865221,-0.52411 -1.134978,-0.94317 -0.172009,-0.26721 -0.28184,-0.57418 -0.318389,-0.88986 l -0.532497,3.45228 z"
           id="path1078" />
        <path
           style="fill:#000000;stroke:none;stroke-width:1px;stroke-linecap:butt;stroke-linejoin:miter;stroke-opacity:1"
           d="m 92.3125,342.68749 c -0.754414,-0.41007 -1.575969,-0.69629 -2.421875,-0.84375 -0.956427,-0.16672 -1.948151,-0.15491 -2.890625,0.0781 -1.19828,0.29625 -2.277918,0.93441 -3.390625,1.46875 -0.597061,0.28672 -1.212212,0.54654 -1.859375,0.6875 -0.604596,0.13169 -1.23488,0.15716 -1.84375,0.0469 -0.177268,-0.0321 -0.35501,-0.0766 -0.511919,-0.16506 -0.156909,-0.0885 -0.292474,-0.22589 -0.347456,-0.39745 -0.05764,-0.17983 -0.02112,-0.38017 0.06501,-0.54823 0.08612,-0.16807 0.218033,-0.30813 0.356869,-0.43614 0.593837,-0.54753 1.334706,-0.90979 2.089306,-1.19791 0.7546,-0.28811 1.534018,-0.50987 2.279872,-0.81993 2.199103,-0.91418 4.062931,-2.612 5.177697,-4.71654"
           id="path1082" />
        <path
           id="path1076"
           d="m 70.660156,348.67969 c -0.128423,-0.47422 -0.167066,-0.97259 -0.113281,-1.46094 0.04344,-0.39445 0.151813,-0.79243 0.390625,-1.10937 0.25277,-0.33546 0.627582,-0.55187 0.96875,-0.79688 0.110386,-0.0793 0.219187,-0.16338 0.304663,-0.26904 0.08547,-0.10565 0.146702,-0.23569 0.148462,-0.37158 0.0016,-0.12004 -0.04379,-0.23814 -0.115709,-0.33426 -0.07192,-0.0961 -0.169236,-0.17129 -0.274916,-0.22824 -0.221815,-0.11954 -0.477604,-0.16036 -0.729181,-0.17448 -0.251577,-0.0141 -0.504482,-0.003 -0.755194,-0.0287 -0.468605,-0.0471 -0.923756,-0.22182 -1.303456,-0.50045 -0.3797,-0.27863 -0.682941,-0.6604 -0.868419,-1.0933 l 0.449504,3.03258 z"
           style="fill:#000000;stroke:none;stroke-width:1px;stroke-linecap:butt;stroke-linejoin:miter;stroke-opacity:1" />
        <path
           id="path1080"
           d="m 83.346306,369.02001 c -0.120666,-0.29487 -0.194233,-0.60896 -0.217065,-0.92674 -0.02882,-0.40118 0.02318,-0.80619 0.132582,-1.19324 0.08554,-0.30263 0.206696,-0.59654 0.375651,-0.86179 0.0742,-0.11649 0.157792,-0.22786 0.216039,-0.35309 0.05825,-0.12522 0.08978,-0.26913 0.05292,-0.40223 -0.02919,-0.10539 -0.09952,-0.19626 -0.185261,-0.26413 -0.08574,-0.0679 -0.186472,-0.1144 -0.28927,-0.15169 -0.337449,-0.12242 -0.701571,-0.15021 -1.060514,-0.15458 -0.358943,-0.004 -0.719014,0.0135 -1.076202,-0.0222 -1.046405,-0.10465 -2.034296,-0.69412 -2.623308,-1.56532 l 2.015998,3.32783 z"
           style="fill:#000000;stroke:none;stroke-width:1px;stroke-linecap:butt;stroke-linejoin:miter;stroke-opacity:1" />
        <path
           id="path1084"
           d="m 104.90625,360.32812 c -0.73445,-0.17846 -1.49547,-0.24716 -2.25,-0.20312 -0.94385,0.0551 -1.87769,0.28751 -2.734375,0.6875 -1.207164,0.56364 -2.237085,1.44283 -3.390625,2.10937 -1.033736,0.59731 -2.170194,1.02256 -3.348383,1.2156 -0.227294,0.0372 -0.457008,0.0659 -0.687278,0.061 -0.230271,-0.005 -0.462039,-0.0446 -0.672097,-0.13906 -0.122797,-0.0552 -0.23783,-0.1293 -0.333543,-0.224 -0.09571,-0.0947 -0.171741,-0.21044 -0.213332,-0.3385 -0.05685,-0.17504 -0.04719,-0.36839 0.01262,-0.54245 0.05981,-0.17405 0.167874,-0.32931 0.299881,-0.45755 0.226777,-0.2203 0.520269,-0.36096 0.821753,-0.45619 0.301484,-0.0952 0.614306,-0.1484 0.922886,-0.21725 1.150007,-0.25658 2.273935,-0.75252 3.103744,-1.58904 0.31895,-0.32153 0.591118,-0.69029 0.796875,-1.09374 0.326259,-0.63974 0.480311,-1.35314 0.580346,-2.06427 0.24045,-1.70931 0.185264,-3.45981 -0.162375,-5.15058 l 2.270683,6.35637 z"
           style="fill:#000000;stroke:none;stroke-width:1px;stroke-linecap:butt;stroke-linejoin:miter;stroke-opacity:1" />
        <path
           id="path1088"
           d="m 122.23004,370.82226 c -0.61698,0.17701 -1.21213,0.42995 -1.76777,0.7513 -0.71488,0.41345 -1.36257,0.93907 -1.9335,1.53575 -0.79962,0.83569 -1.4461,1.80503 -2.2097,2.67375 -1.03133,1.17329 -2.27232,2.15571 -3.62393,2.93891 -1.09869,0.63665 -2.27735,1.14559 -3.51343,1.43632 -0.21978,0.0517 -0.44349,0.0967 -0.6692,0.0916 -0.22572,-0.005 -0.45588,-0.064 -0.63453,-0.20206 -0.14191,-0.10966 -0.24551,-0.26561 -0.30168,-0.43593 -0.0562,-0.17032 -0.066,-0.35439 -0.0388,-0.53166 0.0544,-0.35454 0.25184,-0.67293 0.48914,-0.9419 0.65913,-0.74709 1.61071,-1.15696 2.53424,-1.53072 0.78438,-0.31745 1.57555,-0.62706 2.31104,-1.04549 0.88135,-0.50141 1.69355,-1.17967 2.16551,-2.07713 0.48571,-0.9236 0.57532,-2.00969 0.48614,-3.0494 -0.10042,-1.17084 -0.41666,-2.32283 -0.92808,-3.38085 l 3.4842,3.19646 z"
           style="opacity:1;fill:#000000;stroke:none;stroke-width:1px;stroke-linecap:butt;stroke-linejoin:miter;stroke-opacity:1" />
        <path
           id="path1092"
           d="m 141.95169,376.51226 c -0.53822,0.69509 -1.09839,1.37318 -1.67938,2.03294 -0.78535,0.89182 -1.6083,1.74966 -2.43068,2.60745 -0.40839,0.42598 -0.82015,0.85501 -1.30373,1.19324 -0.15374,0.10753 -0.3151,0.20591 -0.48924,0.27573 -0.17414,0.0698 -0.36201,0.11047 -0.54932,0.0999 -0.15425,-0.009 -0.30755,-0.0529 -0.43784,-0.1359 -0.13029,-0.083 -0.23657,-0.20578 -0.29137,-0.35023 -0.0544,-0.14348 -0.0569,-0.30306 -0.0271,-0.4536 0.0298,-0.15055 0.0905,-0.29328 0.15966,-0.43028 0.38395,-0.76062 1.02639,-1.35844 1.70147,-1.87826 0.314,-0.24179 0.63904,-0.47145 0.92477,-0.74607 0.28572,-0.27463 0.53373,-0.60026 0.65517,-0.9775 0.12046,-0.37419 0.10982,-0.78283 0.013,-1.16383 -0.0968,-0.381 -0.27648,-0.73671 -0.48812,-1.06798 -0.63778,-0.99829 -1.58307,-1.7971 -2.67375,-2.25943"
           style="fill:#000000;stroke:none;stroke-width:1px;stroke-linecap:butt;stroke-linejoin:miter;stroke-opacity:1" />
        <path
           id="path1096"
           d="m 208.79687,362.16015 c 0.2541,0.17392 0.45322,0.42697 0.5625,0.71485 0.081,0.21341 0.11305,0.44363 0.10938,0.67187 -0.006,0.3991 -0.1197,0.7905 -0.12902,1.18954 -0.004,0.1502 0.008,0.30207 0.0519,0.44578 0.0438,0.14371 0.12147,0.27939 0.23539,0.37734 0.0889,0.0765 0.19824,0.12827 0.31301,0.15233 0.11478,0.0241 0.23481,0.0207 0.34896,-0.006 0.2283,-0.0538 0.42851,-0.20037 0.57245,-0.38555 0.1644,-0.2115 0.25875,-0.4692 0.32431,-0.72894 0.0656,-0.25973 0.10478,-0.52563 0.17288,-0.78471 0.18364,-0.69865 0.58152,-1.33944 1.12628,-1.81386"
           style="fill:#000000;stroke:none;stroke-width:1px;stroke-linecap:butt;stroke-linejoin:miter;stroke-opacity:1" />
        <path
           id="path1100"
           d="m 234.63792,364.34782 c 0.2816,0.28017 0.48929,0.634 0.59662,1.01646 0.12168,0.43357 0.11215,0.90776 -0.0552,1.32583 -0.18393,0.45949 -0.54136,0.82542 -0.90598,1.1601 -0.6282,0.57662 -1.30335,1.09931 -1.96665,1.63518 -0.42636,0.34445 -0.84992,0.69631 -1.21534,1.10485 -0.27573,0.30826 -0.52203,0.65854 -0.61871,1.06066 -0.043,0.17872 -0.0551,0.36752 -0.0116,0.54612 0.0434,0.1786 0.14592,0.34632 0.29888,0.44825 0.12036,0.0802 0.2662,0.11664 0.41075,0.12154 0.14455,0.005 0.28859,-0.0203 0.42894,-0.0552 0.78436,-0.1952 1.46209,-0.68811 2.05503,-1.23743 1.07074,-0.99197 1.93069,-2.1941 3.0052,-3.18198 0.30082,-0.27657 0.61782,-0.53566 0.95018,-0.7734 1.0411,-0.74469 2.23378,-1.2765 3.48352,-1.55327"
           style="fill:#000000;stroke:none;stroke-width:1px;stroke-linecap:butt;stroke-linejoin:miter;stroke-opacity:1" />
        <path
           id="path1108"
           d="m 264.78939,372.24753 c -0.91951,0.58496 -1.79233,1.24328 -2.60745,1.96664 -0.7677,0.68128 -1.48313,1.41906 -2.18762,2.16551 -0.6193,0.65619 -1.23966,1.33245 -1.63518,2.14342 -0.15872,0.32544 -0.2806,0.67654 -0.28726,1.03856 -0.01,0.53924 0.25374,1.07652 0.68635,1.39858 l -4.26601,0.58589 -3.37859,-0.90316 c 0.69581,-0.0251 1.38692,-0.17504 2.0306,-0.44049 1.09988,-0.45358 2.03712,-1.23013 2.87262,-2.07713 0.77906,-0.78979 1.48811,-1.65389 2.05503,-2.60746 0.4829,-0.81225 0.86885,-1.73163 0.79549,-2.67374 -0.0345,-0.44279 -0.17168,-0.87725 -0.39774,-1.25954 z"
           style="fill:#000000;stroke:none;stroke-width:1px;stroke-linecap:butt;stroke-linejoin:miter;stroke-opacity:1" />
        <path
           id="path1112"
           d="m 281.75,372.25 c 0.56289,0.19601 1.05135,0.59836 1.35156,1.11328 0.37757,0.64762 0.44549,1.46703 0.17969,2.16797"
           style="fill:none;stroke:#000000;stroke-width:2;stroke-linecap:butt;stroke-linejoin:miter;stroke-miterlimit:4;stroke-dasharray:none;stroke-opacity:1" />
        <path
           d="m 191.62598,74.86493 c -0.81767,1.263635 -1.08041,2.872949 -0.70711,4.331029 0.32382,1.264803 1.08872,2.372779 1.94454,3.358758 0.42701,0.491956 0.88052,0.961695 1.28005,1.476224 0.39952,0.514529 0.7471,1.080431 0.92966,1.705756 0.17132,0.586832 0.19216,1.20926 0.13645,1.818046 -0.0557,0.608786 -0.18618,1.207893 -0.31322,1.805876 -0.18028,0.848534 -0.3545,1.700209 -0.44195,2.563262 -0.037,0.364624 -0.0583,0.733246 -0.0142,1.097079 0.0441,0.363833 0.15646,0.724808 0.36778,1.024242 0.21843,0.309512 0.53505,0.541773 0.88096,0.69623 0.34591,0.154457 0.72107,0.234523 1.09743,0.277672 0.75272,0.0863 1.5208,0.02914 2.26425,0.175146 0.74269,0.145853 1.43623,0.491611 2.05041,0.933926 0.61418,0.442316 1.15362,0.980133 1.6619,1.540948 1.31864,1.454938 2.44984,3.083666 3.88909,4.419416 2.3849,2.21339 5.58656,3.52607 8.83883,3.62392 l 4.24925,15.89708 0.35572,26.40461 -16.36068,31.59097 c -0.97446,1.09069 -2.28897,1.87313 -3.71231,2.20971 -1.446,0.34194 -2.96761,0.22798 -4.41942,-0.0884 -0.45486,-0.0991 -0.9072,-0.2181 -1.37047,-0.26393 -0.46327,-0.0458 -0.94472,-0.0148 -1.36957,0.17553 -0.4268,0.1912 -0.77624,0.53789 -1.00023,0.94843 -0.22399,0.41054 -0.32604,0.882 -0.32559,1.34967 6.4e-4,0.66543 0.20216,1.31432 0.44381,1.93432 0.24164,0.62001 0.52606,1.22553 0.70524,1.86638 0.24909,0.8909 0.28748,1.84136 0.0996,2.74714 -0.18791,0.90578 -0.60289,1.76498 -1.20442,2.46777 -0.41555,0.4855 -0.92189,0.90269 -1.23743,1.45841 -0.23658,0.41665 -0.35354,0.89293 -0.39775,1.37002 -0.0918,0.99056 0.12729,2.00767 0.61872,2.87262 l -14.83598,25.16115 -10.35931,6.70396 -23.24503,26.9196 c -2.11844,1.96647 -4.61498,3.52414 -7.3125,4.5625 -0.61576,0.23702 -1.24293,0.44776 -1.83849,0.73176 -0.59555,0.284 -1.16424,0.64694 -1.59901,1.14324 -0.43621,0.49795 -0.71972,1.10773 -1.00656,1.70435 -0.28683,0.59662 -0.59045,1.19996 -1.05594,1.67065 -0.46549,0.47068 -1.06561,0.78107 -1.66143,1.06957 -0.59581,0.28849 -1.20608,0.56786 -1.71357,0.99293 -0.78719,0.65934 -1.2774,1.66126 -1.3125,2.6875 -0.0405,1.18544 0.50182,2.3296 1.25,3.25 0.9086,1.11774 2.13653,1.9729 3.5,2.4375 l -5.74259,14.31179 -2.23982,13.4855 1.62131,8.847 4.1736,6.78487 L 134,325.75 c -0.73766,0.18045 -1.37141,0.74088 -1.64074,1.45093 -0.26932,0.71004 -0.16668,1.5498 0.26574,2.17407 0.30994,0.44745 0.76233,0.77159 1.16393,1.13899 0.2008,0.1837 0.39139,0.38111 0.54266,0.60735 0.15127,0.22624 0.26251,0.48327 0.29341,0.75366 0.031,0.27098 -0.0189,0.54392 -0.0671,0.81238 -0.0479,0.26846 -0.095,0.54241 -0.0579,0.81262 0.0323,0.23476 0.12725,0.45764 0.25139,0.65948 0.12415,0.20184 0.27718,0.38425 0.43418,0.56174 0.31398,0.35498 0.65491,0.70751 0.81443,1.15378 0.1267,0.35452 0.1278,0.74537 0.0525,1.11425 -0.0753,0.36887 -0.22392,0.71883 -0.3913,1.05606 -0.33478,0.67445 -0.7559,1.33247 -0.8487,2.07969 -0.0425,0.34192 -0.0112,0.69887 0.13368,1.01146 0.14493,0.31258 0.41156,0.57614 0.74132,0.67604 0.18227,0.0552 0.38149,0.0592 0.5625,0 0.1685,-0.0551 0.31691,-0.163 0.43503,-0.29519 0.11812,-0.1322 0.20729,-0.28818 0.27809,-0.45069 0.14169,-0.32502 0.21234,-0.67711 0.34938,-1.00412 0.27729,-0.66168 0.806,-1.1794 1.3125,-1.6875 0.34344,-0.34453 0.68291,-0.69357 1,-1.0625 0.23476,-0.27315 0.45775,-0.55773 0.71778,-0.80695 0.26003,-0.24921 0.56228,-0.46443 0.90722,-0.56805 0.43248,-0.12993 0.89594,-0.0761 1.34446,-0.0237 0.44851,0.0524 0.91361,0.10085 1.34304,-0.0388 0.41415,-0.13468 0.76001,-0.43773 1.00343,-0.79885 0.24341,-0.36112 0.39166,-0.77848 0.49657,-1.20115 0.28781,-1.15957 0.26366,-2.37582 0.125,-3.5625 -0.13868,-1.18686 -0.39018,-2.36052 -0.75,-3.5 l 12.93856,-2.17781 17.12827,-6.9449 12.89117,-4.39099 9.69829,-1.1426 c -0.68277,0.4209 -1.13868,1.18865 -1.18148,1.98959 -0.0428,0.80093 0.3287,1.6129 0.96273,2.10416 0.29706,0.23017 0.64125,0.38978 0.97635,0.55987 0.3351,0.17009 0.66955,0.35663 0.9299,0.62763 0.30336,0.31576 0.48617,0.72448 0.68775,1.11319 0.20158,0.38872 0.44101,0.77961 0.81225,1.01181 0.19737,0.12345 0.4234,0.19568 0.65265,0.23618 0.22924,0.0405 0.46272,0.0502 0.69544,0.0562 0.46543,0.0119 0.9479,0.0126 1.37066,0.20767 0.30657,0.14145 0.56016,0.37635 0.78774,0.62575 0.22759,0.2494 0.43537,0.51762 0.68101,0.74925 0.57927,0.54623 1.38566,0.87016 2.17754,0.78736 0.39594,-0.0414 0.7825,-0.18289 1.10474,-0.41665 0.32224,-0.23375 0.57839,-0.56029 0.71772,-0.93321 0.10205,-0.27322 0.14105,-0.5651 0.18945,-0.85273 0.0484,-0.28762 0.1087,-0.57854 0.24805,-0.83477 0.12376,-0.22756 0.30499,-0.41845 0.49501,-0.59449 0.19002,-0.17605 0.39136,-0.34056 0.56749,-0.53051 0.35194,-0.37955 0.59747,-0.86374 0.66017,-1.37753 0.0627,-0.5138 -0.0648,-1.05479 -0.37892,-1.46622 -0.22888,-0.29983 -0.54291,-0.52061 -0.83089,-0.76422 -0.28799,-0.24362 -0.56337,-0.52995 -0.66911,-0.89203 -0.0568,-0.19447 -0.0609,-0.40405 -0.0118,-0.6006 0.0491,-0.19654 0.15138,-0.37954 0.29301,-0.5244 l 8.03393,1.10703 15.21699,7.25804 11.85513,8.36204 17.2948,14.48926 c -0.3492,0.3207 -0.59957,0.74758 -0.70904,1.20889 -0.10948,0.46131 -0.0776,0.95516 0.0903,1.39856 0.20789,0.54904 0.61145,1.0038 1.06011,1.38243 0.44866,0.37864 0.94763,0.69265 1.41476,1.04825 0.51141,0.38931 0.98523,0.8289 1.52081,1.18423 0.53558,0.35532 1.15102,0.62758 1.79375,0.62773 0.66246,1.5e-4 1.32486,-0.31065 1.72358,-0.83969 0.22996,-0.30513 0.37121,-0.67631 0.40231,-1.05713 0.0311,-0.38082 -0.0481,-0.77 -0.22554,-1.10838 l 12.74765,4.75121 c -0.72117,1.78591 -2.06779,3.31207 -3.75,4.25 -1.85643,1.03506 -4.02482,1.3399 -6,2.125 -1.18358,0.47045 -2.32247,1.13599 -3.125,2.125 -0.40602,0.50037 -0.71568,1.07013 -1.05046,1.62071 -0.33479,0.55059 -0.70372,1.09272 -1.19954,1.50429 -0.7083,0.58794 -1.61717,0.86425 -2.5,1.125 -1.01602,0.30008 -2.0534,0.60076 -3.11236,0.57016 -0.52948,-0.0153 -1.06015,-0.11551 -1.54369,-0.33179 -0.48353,-0.21628 -0.91869,-0.55199 -1.21895,-0.98837 -0.30887,-0.44889 -0.46536,-0.98483 -0.57086,-1.51941 -0.1055,-0.53458 -0.16507,-1.07875 -0.30414,-1.60559 -0.39708,-1.50422 -1.40737,-2.75982 -2.40169,-3.95635 -0.99432,-1.19653 -2.02393,-2.42922 -2.47331,-3.91865 -0.39248,-1.30083 -0.31316,-2.71339 -0.75,-4 -0.32277,-0.95063 -0.91143,-1.78513 -1.50864,-2.59211 -0.5972,-0.80699 -1.21691,-1.61185 -1.61636,-2.53289 -0.64318,-1.48302 -0.66811,-3.14681 -0.875,-4.75 -0.55072,-4.26743 -2.53355,-8.3919 -5.75,-11.25 -1.99794,-1.77534 -4.39674,-3.02404 -6.625,-4.5 -0.80395,-0.53252 -1.59135,-1.09822 -2.45838,-1.52034 -0.86702,-0.42213 -1.83178,-0.69746 -2.79162,-0.60466 -1.07218,0.10371 -2.06306,0.6634 -2.84434,1.40498 -0.78127,0.74158 -1.37339,1.65853 -1.90566,2.59502 -0.67058,1.17984 -1.26001,2.40793 -2.00893,3.53966 -0.74892,1.13173 -1.67809,2.17929 -2.86607,2.83534 -0.73483,0.4058 -1.55475,0.6546 -2.25,1.125 -1.06829,0.72281 -1.74171,1.90157 -2.20897,3.10381 -0.46725,1.20223 -0.76647,2.46783 -1.29103,3.64619 -0.74639,1.67669 -1.98515,3.1758 -3.625,4 -1.67629,0.8425 -3.62466,0.9285 -5.5,0.875 -1.27791,-0.0364 -2.57687,-0.13465 -3.76945,-0.59522 -0.59629,-0.23029 -1.16103,-0.55133 -1.6387,-0.97609 -0.47767,-0.42476 -0.86657,-0.95549 -1.09185,-1.55369 -0.30322,-0.80524 -0.30052,-1.69052 -0.25142,-2.54956 0.0487,-0.85904 0.14,-1.7263 0.001,-2.57544 -0.1464,-0.89436 -0.54783,-1.73785 -1.1015,-2.45531 -0.55367,-0.71747 -1.25634,-1.31223 -2.0235,-1.79469 -0.99582,-0.62626 -2.09524,-1.06505 -3.15851,-1.56835 -1.06328,-0.5033 -2.11329,-1.08758 -2.92178,-1.94211 -0.67683,-0.71538 -1.16793,-1.60339 -1.91971,-2.23954 -0.90903,-0.76922 -2.118,-1.09635 -3.30414,-1.20179 -1.18614,-0.1054 -2.38062,-0.0113 -3.57086,-0.0482 -4.15247,-0.1288 -8.22966,-1.92689 -11.125,-4.90625 l -7.83013,3.2384 c 0.3184,3.24166 -0.57834,6.58841 -2.47488,9.23659 -1.12627,1.57263 -2.57531,2.88761 -3.7565,4.41942 -1.95262,2.53224 -3.11454,5.57454 -4.77297,8.3085 -0.866,1.42762 -1.87913,2.78329 -3.14588,3.87112 -1.26675,1.08782 -2.80303,1.89987 -4.45552,2.13929 -1.75343,0.25408 -3.55975,-0.13799 -5.3033,0.17678 -1.10029,0.19864 -2.1349,0.67348 -3.09073,1.25356 -0.95583,0.58007 -1.84186,1.26643 -2.7429,1.92842 -0.85815,0.63048 -1.73955,1.2445 -2.7175,1.66583 -0.97796,0.42129 -2.06776,0.64217 -3.11613,0.45549 -1.0062,-0.17917 -1.93197,-0.73359 -2.60837,-1.49977 -0.6764,-0.76617 -1.10755,-1.73562 -1.28072,-2.74287 -0.23289,-1.3546 -0.0109,-2.74494 0.28986,-4.08611 0.30071,-1.34117 0.6817,-2.67404 0.7708,-4.04562 0.13828,-2.12964 -0.46772,-4.31796 -1.76776,-6.01041 -0.59261,-0.77148 -1.31638,-1.43253 -1.93713,-2.18156 -0.62074,-0.74902 -1.14985,-1.62324 -1.24485,-2.59141 -0.097,-0.98897 0.26844,-1.9664 0.73099,-2.84591 0.46255,-0.8795 1.0298,-1.70816 1.39033,-2.63417 0.43881,-1.12693 0.55371,-2.3596 0.48931,-3.56721 -0.0644,-1.20761 -0.30279,-2.39853 -0.55101,-3.58211 -0.59748,-2.84892 -1.259,-5.71412 -1.25,-8.625 0.004,-1.27308 0.13698,-2.54437 0.10658,-3.81709 -0.0304,-1.27272 -0.23514,-2.57181 -0.85658,-3.68291 -0.47699,-0.85282 -1.17683,-1.55657 -1.88349,-2.23145 -0.70665,-0.67488 -1.43555,-1.33997 -1.99151,-2.14355 -1.14348,-1.65276 -1.454,-3.74076 -1.5,-5.75 -0.0986,-4.30441 0.86121,-8.68393 -0.125,-12.875 -0.33958,-1.44312 -0.90558,-2.82872 -1.625,-4.125 -0.83372,-1.50223 -1.8781,-2.89843 -2.5,-4.5 -0.32019,-0.82457 -0.52395,-1.70103 -0.52695,-2.58558 -0.003,-0.88455 0.20143,-1.77819 0.65195,-2.53942 0.46086,-0.7787 1.15623,-1.38965 1.87538,-1.93883 0.71914,-0.54918 1.47744,-1.05377 2.12462,-1.68617 0.94125,-0.91975 1.61178,-2.07368 2.39325,-3.13254 0.78147,-1.05886 1.73625,-2.06748 2.98175,-2.49246 0.65733,-0.22432 1.36013,-0.27312 2.05406,-0.30232 0.69393,-0.0292 1.39418,-0.0415 2.07094,-0.19768 1.03202,-0.23818 1.96489,-0.80316 2.7756,-1.48473 0.81072,-0.68157 1.51245,-1.4811 2.2244,-2.26527 1.73149,-1.90713 3.56521,-3.7605 5.75,-5.125 1.42515,-0.89007 2.98192,-1.56053 4.375,-2.5 2.08152,-1.40375 3.72127,-3.35317 5.5,-5.125 1.35145,-1.3462 2.812,-2.61156 4.5,-3.5 1.17211,-0.61691 2.43545,-1.04243 3.625,-1.625 3.51694,-1.72239 6.22649,-4.72567 9.5,-6.875 2.94434,-1.9332 6.35031,-3.17933 9,-5.5 2.64042,-2.31255 4.34929,-5.57684 5.125,-9 0.88259,-3.89481 0.61783,-7.9801 1.5,-11.875 1.04197,-4.60043 3.65464,-8.80656 4.125,-13.5 0.30394,-3.03287 -0.3105,-6.07762 -0.375,-9.125 -0.0275,-1.30158 0.0471,-2.6151 0.375,-3.875 0.23236,-0.89271 0.5983,-1.76437 1.18315,-2.47772 0.58485,-0.71335 1.40485,-1.25883 2.31685,-1.39728 0.50442,-0.0765 1.01827,-0.0286 1.52845,-0.0336 0.51018,-0.005 1.04011,-0.069 1.47155,-0.34135 0.38945,-0.24583 0.66055,-0.63616 0.92572,-1.01271 0.26517,-0.37655 0.5479,-0.76145 0.94928,-0.98729 0.2582,-0.14531 0.55319,-0.21631 0.84845,-0.24071 0.29526,-0.0244 0.59234,-0.004 0.88724,0.0246 0.58982,0.0567 1.19869,0.14266 1.76431,-0.0339 0.33142,-0.10345 0.63202,-0.29428 0.88562,-0.5314 0.2536,-0.23713 0.46166,-0.51983 0.63661,-0.81972 0.34991,-0.59977 0.56855,-1.26533 0.85277,-1.89888 0.45081,-1.00491 1.07523,-1.93888 1.88051,-2.69027 0.80529,-0.7514 1.79545,-1.31578 2.86949,-1.55973 1.28405,-0.29165 2.6209,-0.12139 3.93765,-0.12439 0.65837,-0.001 1.32119,-0.0473 1.95803,-0.21434 0.63683,-0.16704 1.24946,-0.4605 1.72932,-0.91127 0.43807,-0.41152 0.75114,-0.93851 1.01036,-1.48079 0.25921,-0.54227 0.47042,-1.10683 0.73964,-1.64421 0.73685,-1.47081 1.88088,-2.68929 2.875,-4 3.93825,-5.19244 5.49095,-11.79324 6.375,-18.25 0.19438,-1.4194 0.36158,-2.85124 0.28378,-4.28176 -0.0778,-1.43053 -0.41213,-2.87055 -1.15878,-4.09324 -0.63476,-1.03947 -1.54112,-1.88459 -2.25,-2.875 -0.89607,-1.25193 -1.47193,-2.72899 -2.5,-3.875 -0.46159,-0.51454 -1.01059,-0.95433 -1.62842,-1.26435 -0.61782,-0.31002 -1.30534,-0.48765 -1.99658,-0.48565 -0.67694,0.002 -1.34015,0.17509 -1.99714,0.33823 -0.65699,0.16313 -1.32668,0.31897 -2.00286,0.28677 -0.98481,-0.0468 -1.92684,-0.50037 -2.6531,-1.16715 -0.72625,-0.66678 -1.24706,-1.53608 -1.5969,-2.45785 -0.24012,-0.63268 -0.40323,-1.29159 -0.61359,-1.93477 -0.21036,-0.64319 -0.47302,-1.27946 -0.88641,-1.81523 -0.35039,-0.45412 -0.80655,-0.82795 -1.32618,-1.0708 -0.51964,-0.2428 -1.10232,-0.3531 -1.67382,-0.3042 -0.87402,0.0748 -1.67188,0.50637 -2.43953,0.93088 -0.76765,0.4245 -1.5623,0.86012 -2.43547,0.94412 -0.60296,0.058 -1.22031,-0.0595 -1.76477,-0.32493 -0.54447,-0.26548 -1.01526,-0.67716 -1.36023,-1.17507 -0.52651,-0.75993 -0.75065,-1.69745 -0.78235,-2.62141 -0.0317,-0.92396 0.11793,-1.84382 0.28235,-2.75359 0.35469,-1.96256 0.78229,-3.92491 0.82499,-5.91881 0.0427,-1.993895 -0.32995,-4.056044 -1.44999,-5.706186 -0.4905,-0.72265 -1.1097,-1.34682 -1.67412,-2.013334 -0.56443,-0.666515 -1.08539,-1.397034 -1.32588,-2.236666 -0.20302,-0.70883 -0.19614,-1.458053 -0.20314,-2.195348 -0.007,-0.737296 -0.0335,-1.490955 -0.29686,-2.179652 -0.31469,-0.822962 -0.94022,-1.483319 -1.56679,-2.102765 -0.62656,-0.619446 -1.28183,-1.237892 -1.68321,-2.022235 -0.39849,-0.778692 -0.51842,-1.666993 -0.59842,-2.538054 -0.08,-0.871062 -0.12829,-1.756003 -0.40158,-2.586946 -0.4462,-1.356698 -1.44595,-2.444649 -2.25,-3.625 -0.98481,-1.445708 -1.68987,-3.059072 -2.48591,-4.61671 -0.79605,-1.557638 -1.70897,-3.093571 -3.01409,-4.25829 -1.25914,-1.12368 -2.81945,-1.845503 -4.375,-2.5 -2.18408,-0.918955 -4.44549,-1.746198 -6.80718,-1.938785 -2.36169,-0.192588 -4.86019,0.311732 -6.69282,1.813785 -1.09703,0.899141 -1.92368,2.120843 -3.125,2.875 -0.95546,0.599811 -2.08174,0.860511 -3.19376,1.050481 -1.11201,0.189971 -2.24339,0.321329 -3.30624,0.699519 -1.08576,0.386344 -2.09945,1.048718 -2.75,2 -0.45579,0.6665 -0.7169,1.444561 -0.94713,2.218487 -0.23024,0.773926 -0.43758,1.56142 -0.80287,2.281513 -0.25334,0.499401 -0.58223,0.96574 -0.75,1.5 -0.18197,0.579585 -0.16247,1.201341 -0.12137,1.807441 0.0407,0.6061 0.10119,1.219245 -0.004,1.817559 -0.16584,0.943327 -0.74446,1.78634 -1.5,2.375 -0.70977,0.552999 -1.56671,0.894814 -2.44472,1.091519 -0.87801,0.196701 -1.78099,0.254091 -2.68028,0.283481 -1.25338,0.04096 -2.51592,0.02807 -3.74983,-0.195776 -1.23391,-0.223844 -2.44461,-0.667468 -3.44582,-1.422605 -0.75056,-0.566095 -1.36805,-1.293664 -2.12132,-1.856155 -0.92587,-0.691378 -2.0365,-1.11354 -3.17555,-1.307948 -1.13906,-0.194411 -2.30776,-0.167351 -3.45358,-0.01788 -0.79928,0.104266 -1.59717,0.268031 -2.40278,0.241101 -0.4028,-0.01346 -0.80625,-0.07548 -1.18509,-0.213001 -0.37883,-0.137522 -0.73293,-0.352554 -1.00832,-0.646818 -0.38499,-0.411374 -0.59719,-0.951416 -0.78742,-1.481756 -0.19023,-0.530339 -0.37285,-1.075958 -0.71519,-1.523448 -0.3851,-0.503376 -0.9541,-0.849088 -1.56245,-1.026835 -0.60836,-0.177744 -1.25514,-0.195404 -1.88469,-0.122214 -0.88579,0.102979 -1.74068,0.380836 -2.61293,0.566311 -0.87226,0.185454 -1.79477,0.275858 -2.64503,0.007 -0.81308,-0.257101 -1.491414,-0.820377 -2.103712,-1.41392 -0.612297,-0.593543 -1.188297,-1.235738 -1.896288,-1.71108 -1.122906,-0.753915 -2.53216,-1.036517 -3.875,-0.875 -1.759311,0.21161 -3.36902,1.137327 -5.125,1.375 -1.446851,0.195832 -2.917456,-0.0854 -4.375,0 -1.300936,0.07622 -2.57306,0.44345 -3.875,0.5 -2.204025,0.09573 -4.33571,-0.697518 -6.5,-1.125 -1.275167,-0.251866 -2.5752,-0.3777 -3.875,-0.375 l 8.352406,-4.724133 11.990433,-3.87513 7.789663,-1.076991 c 2.061968,1.456293 4.423908,2.485857 6.894288,3.005204 2.72811,0.57353 5.57053,0.524391 8.30851,0 1.1263,-0.215714 2.24149,-0.511407 3.38446,-0.604704 1.14297,-0.0933 2.34004,0.0311 3.33305,0.604704 0.7894,0.455996 1.40169,1.166761 1.91242,1.92191 0.51072,0.75515 0.93497,1.566021 1.44634,2.320731 0.40215,0.593516 0.86179,1.15521 1.42167,1.603011 0.55987,0.447801 1.22625,0.77862 1.93709,0.871862 0.88727,0.116385 1.80803,-0.150755 2.53117,-0.677878 0.72314,-0.527124 1.25105,-1.301822 1.53469,-2.150549 0.28682,-0.858248 0.33073,-1.777197 0.33404,-2.682097 0.003,-0.904899 -0.0311,-1.815424 0.1079,-2.709592 0.34317,-2.207756 1.80406,-4.21223 3.8007,-5.214912 l 9.34757,0.418666 20.43865,3.77617 14.05697,6.112273 z"
           style="fill:#000000;stroke:#000000;stroke-width:1px;stroke-linecap:butt;stroke-linejoin:miter;stroke-opacity:1"
           id="path1154" />
      </g>
    </g>
  </g>
</svg>
